<svg version="1.1" id="Layer_1" xmlns="http://www.w3.org/2000/svg" xmlns:xlink="http://www.w3.org/1999/xlink" x="0px"
     y="0px"
     width="100%" viewBox="250 150 1600 1700" enable-background="new 0 0 2144 1984" xml:space="preserve">
<defs>
	<style>
        :root {
            --lines-color: #2f99a1;
			--bg-from: #21384f;
			--bg-via: #1f2b38;
			--bg-to: #13202b;
		}
	</style>
    <linearGradient id="shadowGradient" x1="0%" y1="0%" x2="100%" y2="100%">
		<stop offset="0%" style="stop-color:var(--bg-from);stop-opacity:1"/>
        <stop offset="50%" style="stop-color:var(--bg-via);stop-opacity:1"/>
        <stop offset="100%" style="stop-color:var(--bg-to);stop-opacity:1"/>
	</linearGradient>
</defs>
    <path fill="var(--lines-color)" opacity="1.000000" stroke="none"
          d="
M1317.778564,322.280823 
	C1356.494141,342.450317 1394.598022,362.195099 1432.585205,382.161987 
	C1475.871704,404.914307 1519.009277,427.949829 1562.292847,450.707855 
	C1619.116577,480.585083 1676.037354,510.277618 1732.880249,540.118469 
	C1757.024292,552.793396 1781.076538,565.643188 1805.699951,578.694092 
	C1805.699951,856.889282 1805.699951,1135.378540 1805.699951,1414.396362 
	C1554.153687,1545.034912 1302.614380,1675.669800 1050.506592,1806.600098 
	C799.216003,1675.869263 547.726990,1545.035156 294.750214,1413.427124 
	C294.750214,1409.447266 294.749390,1404.525879 294.750336,1399.604492 
	C294.782227,1236.629639 294.833801,1073.654785 294.839264,910.679871 
	C294.842834,804.029724 294.909851,697.379028 294.513367,590.730225 
	C294.479523,581.626587 297.581573,577.224609 305.367676,573.182251 
	C381.845764,533.476685 458.159271,493.453247 534.445374,453.379028 
	C589.818604,424.290710 645.032959,394.899872 700.406555,365.812317 
	C745.180603,342.292664 790.134338,319.115204 834.922852,295.622833 
	C902.689697,260.078003 970.479980,224.574539 1037.989136,188.545227 
	C1046.947021,183.764465 1053.857422,183.566696 1062.729736,188.309402 
	C1113.182739,215.278717 1163.894897,241.763626 1214.553345,268.347595 
	C1248.711304,286.272522 1282.926147,304.089142 1317.778564,322.280823 
M358.943604,1034.999023 
	C358.943604,1148.259644 358.943604,1261.520264 358.943604,1374.429321 
	C362.320953,1376.425049 364.809662,1378.063965 367.441620,1379.426147 
	C425.325836,1409.384644 483.282532,1439.203491 541.108032,1469.274902 
	C606.924133,1503.501587 672.590637,1538.015625 738.388306,1572.277710 
	C790.338196,1599.329102 842.427429,1626.112793 894.382263,1653.154541 
	C944.270630,1679.120605 994.118652,1705.166016 1043.823364,1731.480713 
	C1048.972656,1734.206909 1052.890747,1734.251099 1057.612305,1731.375977 
	C1062.721191,1728.264771 1068.065552,1725.528564 1073.379639,1722.768066 
	C1147.198608,1684.420776 1221.065674,1646.166138 1294.847900,1607.748413 
	C1363.312500,1572.099365 1431.650024,1536.205933 1500.116089,1500.559814 
	C1577.744629,1460.143433 1655.458008,1419.890137 1733.114014,1379.526367 
	C1736.283325,1377.879028 1739.243896,1375.829834 1741.822510,1374.259644 
	C1741.822510,1121.269165 1741.822510,869.349121 1741.822510,617.250854 
	C1738.763672,615.505371 1735.939331,613.783447 1733.019043,612.243408 
	C1678.859253,583.680481 1624.735962,555.047791 1570.507690,526.615295 
	C1493.323730,486.146820 1416.052368,445.845123 1338.835693,405.438995 
	C1303.788696,387.099548 1268.798828,368.651031 1233.755127,350.305267 
	C1193.980835,329.482971 1154.186890,308.697906 1114.378174,287.941437 
	C1095.209595,277.946930 1075.979004,268.071716 1056.797241,258.102356 
	C1053.199829,256.232666 1050.101807,254.773743 1045.689331,257.110474 
	C1016.005371,272.830322 986.095703,288.122986 956.347900,303.723358 
	C901.852478,332.301910 847.456604,361.070557 792.947144,389.622223 
	C745.190979,414.636536 697.289551,439.373444 649.534485,464.389679 
	C557.877930,512.403503 466.287415,560.543396 374.649658,608.592957 
	C359.049744,616.772705 358.996674,616.685303 358.871307,634.058716 
	C358.837616,638.724487 358.859985,643.390625 358.861023,648.056641 
	C358.889526,776.370728 358.918579,904.684814 358.943604,1034.999023 
z"/>
    <path fill="url(#shadowGradient)" opacity="1.000000" stroke="none"
          d="
M358.945557,1033.999023 
	C358.918579,904.684814 358.889526,776.370728 358.861023,648.056641 
	C358.859985,643.390625 358.837616,638.724487 358.871307,634.058716 
	C358.996674,616.685303 359.049744,616.772705 374.649658,608.592957 
	C466.287415,560.543396 557.877930,512.403503 649.534485,464.389679 
	C697.289551,439.373444 745.190979,414.636536 792.947144,389.622223 
	C847.456604,361.070557 901.852478,332.301910 956.347900,303.723358 
	C986.095703,288.122986 1016.005371,272.830322 1045.689331,257.110474 
	C1050.101807,254.773743 1053.199829,256.232666 1056.797241,258.102356 
	C1075.979004,268.071716 1095.209595,277.946930 1114.378174,287.941437 
	C1154.186890,308.697906 1193.980835,329.482971 1233.755127,350.305267 
	C1268.798828,368.651031 1303.788696,387.099548 1338.835693,405.438995 
	C1416.052368,445.845123 1493.323730,486.146820 1570.507690,526.615295 
	C1624.735962,555.047791 1678.859253,583.680481 1733.019043,612.243408 
	C1735.939331,613.783447 1738.763672,615.505371 1741.822510,617.250854 
	C1741.822510,869.349121 1741.822510,1121.269165 1741.822510,1374.259644 
	C1739.243896,1375.829834 1736.283325,1377.879028 1733.114014,1379.526367 
	C1655.458008,1419.890137 1577.744629,1460.143433 1500.116089,1500.559814 
	C1431.650024,1536.205933 1363.312500,1572.099365 1294.847900,1607.748413 
	C1221.065674,1646.166138 1147.198608,1684.420776 1073.379639,1722.768066 
	C1068.065552,1725.528564 1062.721191,1728.264771 1057.612305,1731.375977 
	C1052.890747,1734.251099 1048.972656,1734.206909 1043.823364,1731.480713 
	C994.118652,1705.166016 944.270630,1679.120605 894.382263,1653.154541 
	C842.427429,1626.112793 790.338196,1599.329102 738.388306,1572.277710 
	C672.590637,1538.015625 606.924133,1503.501587 541.108032,1469.274902 
	C483.282532,1439.203491 425.325836,1409.384644 367.441620,1379.426147 
	C364.809662,1378.063965 362.320953,1376.425049 358.943604,1374.429321 
	C358.943604,1261.520264 358.943604,1148.259644 358.945557,1033.999023 
M958.212280,1449.355713 
	C917.162476,1425.838379 874.564941,1405.480713 831.179016,1386.676514 
	C774.676453,1362.187012 717.083923,1340.725952 658.193970,1322.680786 
	C619.670654,1310.876343 580.869019,1300.238770 541.222351,1292.961670 
	C521.954407,1289.425049 502.560181,1286.575684 482.233673,1283.253418 
	C482.233673,1091.648926 482.233673,900.231018 482.233673,707.106628 
	C459.972046,717.253113 439.223480,726.710022 419.063934,735.898376 
	C419.063934,937.655396 419.063934,1138.233154 419.063934,1339.054443 
	C420.752411,1339.465454 421.976379,1339.856445 423.230835,1340.054810 
	C446.244904,1343.696777 469.320648,1346.984375 492.267120,1351.009644 
	C536.880615,1358.835449 581.030518,1368.770508 624.979004,1379.798950 
	C696.030945,1397.628662 765.946777,1419.013672 834.886230,1443.728027 
	C904.130432,1468.551636 972.362000,1495.839233 1038.734497,1527.584839 
	C1047.486816,1531.770996 1054.449707,1531.622314 1062.984619,1527.513062 
	C1134.135010,1493.255737 1208.010742,1465.698364 1282.488892,1439.780151 
	C1343.443481,1418.568237 1405.184204,1399.770874 1467.617920,1383.370850 
	C1521.369385,1369.251343 1575.437134,1356.500732 1630.378906,1347.755737 
	C1647.394165,1345.047363 1664.342651,1341.920654 1681.697388,1338.920532 
	C1681.697388,1137.704468 1681.697388,936.867004 1681.697388,735.550354 
	C1660.788818,726.207947 1640.447266,716.121155 1617.812012,707.967224 
	C1617.812012,900.804810 1617.812012,1092.011475 1617.812012,1283.123657 
	C1600.431152,1286.637451 1583.751221,1289.662964 1567.235474,1293.412598 
	C1515.296021,1305.204590 1463.965454,1319.173096 1413.391846,1335.993286 
	C1325.834595,1365.114136 1240.366455,1399.188721 1158.277710,1441.504517 
	C1151.801025,1444.843140 1144.852417,1447.265869 1137.144775,1449.718140 
	C1136.805542,1449.811279 1136.466187,1449.904297 1136.339722,1448.642456 
	C1145.744019,1441.296143 1155.230225,1434.051880 1164.539062,1426.586548 
	C1213.742065,1387.128418 1265.425781,1351.427734 1320.774170,1320.986206 
	C1393.525513,1280.973389 1470.764038,1254.149536 1552.448486,1239.823486 
	C1559.882080,1238.520020 1567.306763,1237.165649 1574.501221,1235.876831 
	C1576.721313,1210.367065 1575.700562,644.809326 1573.113647,635.151428 
	C1547.175049,636.243225 1520.841187,636.503235 1494.658081,638.622925 
	C1431.923096,643.701660 1370.868896,657.172852 1312.262939,680.152466 
	C1285.378906,690.693909 1259.619507,704.098083 1233.311157,716.118530 
	C1229.122681,718.032288 1227.856812,720.921387 1227.719727,725.502930 
	C1227.401245,736.147827 1226.448486,746.781921 1225.486938,757.396240 
	C1224.986938,762.914368 1223.922729,768.381409 1222.875977,775.481812 
	C1313.277100,725.948975 1408.700439,700.932007 1510.275635,696.874146 
	C1510.275635,859.324890 1510.275635,1020.464600 1510.275635,1181.033813 
	C1326.390015,1227.157104 1175.138184,1324.437622 1050.653564,1465.473877 
	C925.547913,1323.998291 773.723633,1226.942505 590.512024,1180.629517 
	C590.512024,1019.506958 590.512024,858.619324 590.512024,696.520447 
	C692.608276,700.324524 787.979980,726.472839 877.247498,775.011536 
	C876.039062,757.570679 874.792297,741.343994 873.881104,725.098511 
	C873.670532,721.345276 872.555847,718.964417 869.133911,717.222717 
	C857.867126,711.488281 846.860840,705.230347 835.503235,699.688477 
	C796.169006,680.495605 754.903259,666.533081 712.554382,655.875000 
	C652.434021,640.744263 591.238281,634.735779 529.302185,635.935425 
	C528.399353,635.952881 527.507080,636.520386 526.440552,636.889893 
	C526.440552,836.546082 526.440552,1036.048706 526.440552,1234.428223 
	C553.827515,1240.435791 580.570496,1245.793213 607.054993,1252.216675 
	C663.939758,1266.013428 717.846741,1287.765503 769.789917,1314.563477 
	C813.399536,1337.062256 854.707764,1363.283813 893.884583,1392.739380 
	C916.487305,1409.733398 938.093811,1428.052368 959.929199,1447.817749 
	C959.835693,1448.496216 959.742126,1449.174561 958.212280,1449.355713 
M1029.057495,549.642395 
	C996.835083,548.647949 964.612610,547.653564 932.375977,546.658691 
	C931.686340,548.083252 930.964905,549.227905 930.553162,550.474792 
	C921.036499,579.293945 914.065063,608.765625 910.248779,638.829956 
	C903.205017,694.320251 903.915710,749.667969 913.688477,804.954651 
	C926.204346,875.759888 948.846130,943.398315 975.285095,1009.967529 
	C976.941467,1014.137939 979.096252,1015.362366 983.370850,1015.357361 
	C1027.673462,1015.305725 1071.976562,1015.358398 1116.278198,1015.626770 
	C1121.858154,1015.660583 1124.460571,1013.623535 1126.470093,1008.480713 
	C1145.475464,959.838684 1163.814209,911.002441 1175.676147,859.984802 
	C1183.442383,826.582031 1190.821533,793.081116 1193.656738,758.866333 
	C1198.389404,701.752075 1195.162109,645.066589 1181.589355,589.232849 
	C1178.081909,574.804504 1173.346069,560.674866 1169.458130,547.377869 
	C1122.217896,548.167908 1076.629028,548.930359 1029.057495,549.642395 
M989.271729,428.317657 
	C970.348328,459.154694 952.835571,490.699249 939.681519,525.446228 
	C1013.771606,529.131653 1086.753906,529.526978 1159.867676,525.495239 
	C1153.057373,488.305603 1080.296753,373.261353 1049.674927,351.125275 
	C1041.297729,360.919403 1032.499512,370.449097 1024.570190,380.653961 
	C1012.737366,395.882721 1001.516785,411.587250 989.271729,428.317657 
M1251.899780,1050.675537 
	C1262.839478,983.247742 1236.525146,930.817261 1185.655762,886.468872 
	C1171.875732,933.424927 1157.924561,979.080200 1138.402710,1023.190674 
	C1173.631470,1054.754883 1198.722900,1093.774048 1220.655396,1136.279419 
	C1235.524414,1109.059570 1245.960449,1081.606445 1251.899780,1050.675537 
M880.087769,923.103455 
	C857.778198,952.737061 845.774658,985.852966 846.200928,1023.191467 
	C846.509277,1050.198242 853.518127,1075.749878 863.376343,1100.593140 
	C867.960388,1112.145264 873.484314,1123.324463 879.406250,1136.506958 
	C902.068604,1093.653687 927.093933,1055.098633 960.733215,1024.499756 
	C945.093994,978.426453 929.711670,933.109924 914.089539,887.087097 
	C901.835876,898.009766 890.857300,909.466064 880.087769,923.103455 
M1070.796875,1126.248901 
	C1068.672729,1116.222290 1066.548462,1106.195679 1064.424194,1096.168335 
	C1054.395142,1096.168335 1045.491943,1096.168335 1036.486450,1096.168335 
	C1030.935181,1113.794800 1027.958374,1131.478638 1025.792480,1149.346802 
	C1022.638550,1175.367432 1024.860596,1201.213013 1027.819092,1227.074097 
	C1031.574829,1259.904053 1038.408691,1292.068359 1048.107056,1323.637573 
	C1048.559204,1325.109619 1049.391479,1326.464722 1050.435791,1328.711304 
	C1061.845337,1294.122192 1068.454590,1259.695068 1071.906982,1224.611572 
	C1075.080933,1192.359009 1076.039673,1160.125610 1070.796875,1126.248901 
M1009.360840,1069.397461 
	C1041.524902,1069.397461 1073.688965,1069.397461 1106.595459,1069.397461 
	C1107.897583,1058.040649 1109.046143,1048.022339 1110.172974,1038.193726 
	C1091.354736,1032.882935 1018.767090,1032.533081 991.247070,1037.491333 
	C992.263794,1047.519531 993.288879,1057.630615 994.345520,1068.052490 
	C998.990356,1068.511353 1003.232666,1068.930542 1009.360840,1069.397461 
M987.917114,1110.988892 
	C978.633240,1127.585449 974.080383,1145.434448 973.669189,1164.406860 
	C972.963196,1196.982422 983.439453,1226.416504 998.920166,1254.440552 
	C999.096558,1254.759888 1000.062744,1254.643066 1000.583557,1254.718750 
	C1000.583557,1250.196777 1000.737061,1245.664917 1000.559753,1241.145996 
	C998.774414,1195.641479 1004.982605,1150.872437 1012.840271,1106.248047 
	C1013.442932,1102.825073 1013.757996,1099.351440 1014.176453,1096.134277 
	C1003.643555,1093.229126 997.047607,1097.173340 991.996765,1104.769165 
	C990.891357,1106.431519 989.732788,1108.058472 987.917114,1110.988892 
M1122.954834,1190.029175 
	C1123.667358,1183.427979 1124.935913,1176.831543 1124.991821,1170.224731 
	C1125.189697,1146.840454 1120.061279,1124.858887 1107.242065,1104.890503 
	C1101.934204,1096.622314 1095.116821,1093.361938 1084.851318,1095.872437 
	C1086.545776,1106.333618 1088.242676,1116.731445 1089.911377,1127.133789 
	C1091.594116,1137.623047 1093.511597,1148.083496 1094.842529,1158.617676 
	C1096.215332,1169.484131 1097.258423,1180.407593 1097.978149,1191.336792 
	C1098.676514,1201.943115 1098.918213,1212.586182 1099.106812,1223.217651 
	C1099.288574,1233.454956 1099.146240,1243.698120 1099.146240,1254.856934 
	C1111.980957,1231.693970 1118.932495,1212.905273 1122.954834,1190.029175 
z"/>
    <path fill="var(--lines-color)" opacity="1.000000" stroke="none"
          d="
M1138.123169,1450.114258 
	C1144.852417,1447.265869 1151.801025,1444.843140 1158.277710,1441.504517 
	C1240.366455,1399.188721 1325.834595,1365.114136 1413.391846,1335.993286 
	C1463.965454,1319.173096 1515.296021,1305.204590 1567.235474,1293.412598 
	C1583.751221,1289.662964 1600.431152,1286.637451 1617.812012,1283.123657 
	C1617.812012,1092.011475 1617.812012,900.804810 1617.812012,707.967224 
	C1640.447266,716.121155 1660.788818,726.207947 1681.697388,735.550354 
	C1681.697388,936.867004 1681.697388,1137.704468 1681.697388,1338.920532 
	C1664.342651,1341.920654 1647.394165,1345.047363 1630.378906,1347.755737 
	C1575.437134,1356.500732 1521.369385,1369.251343 1467.617920,1383.370850 
	C1405.184204,1399.770874 1343.443481,1418.568237 1282.488892,1439.780151 
	C1208.010742,1465.698364 1134.135010,1493.255737 1062.984619,1527.513062 
	C1054.449707,1531.622314 1047.486816,1531.770996 1038.734497,1527.584839 
	C972.362000,1495.839233 904.130432,1468.551636 834.886230,1443.728027 
	C765.946777,1419.013672 696.030945,1397.628662 624.979004,1379.798950 
	C581.030518,1368.770508 536.880615,1358.835449 492.267120,1351.009644 
	C469.320648,1346.984375 446.244904,1343.696777 423.230835,1340.054810 
	C421.976379,1339.856445 420.752411,1339.465454 419.063934,1339.054443 
	C419.063934,1138.233154 419.063934,937.655396 419.063934,735.898376 
	C439.223480,726.710022 459.972046,717.253113 482.233673,707.106628 
	C482.233673,900.231018 482.233673,1091.648926 482.233673,1283.253418 
	C502.560181,1286.575684 521.954407,1289.425049 541.222351,1292.961670 
	C580.869019,1300.238770 619.670654,1310.876343 658.193970,1322.680786 
	C717.083923,1340.725952 774.676453,1362.187012 831.179016,1386.676514 
	C874.564941,1405.480713 917.162476,1425.838379 959.323792,1450.088379 
	C962.996399,1452.371948 965.557434,1453.922852 968.722900,1455.824585 
	C971.647339,1454.449463 971.526245,1454.029541 967.619751,1451.459961 
	C964.815369,1449.280396 962.482056,1447.527588 960.148682,1445.774902 
	C938.093811,1428.052368 916.487305,1409.733398 893.884583,1392.739380 
	C854.707764,1363.283813 813.399536,1337.062256 769.789917,1314.563477 
	C717.846741,1287.765503 663.939758,1266.013428 607.054993,1252.216675 
	C580.570496,1245.793213 553.827515,1240.435791 526.440552,1234.428223 
	C526.440552,1036.048706 526.440552,836.546082 526.440552,636.889893 
	C527.507080,636.520386 528.399353,635.952881 529.302185,635.935425 
	C591.238281,634.735779 652.434021,640.744263 712.554382,655.875000 
	C754.903259,666.533081 796.169006,680.495605 835.503235,699.688477 
	C846.860840,705.230347 857.867126,711.488281 869.133911,717.222717 
	C872.555847,718.964417 873.670532,721.345276 873.881104,725.098511 
	C874.792297,741.343994 876.039062,757.570679 877.247498,775.011536 
	C787.979980,726.472839 692.608276,700.324524 590.512024,696.520447 
	C590.512024,858.619324 590.512024,1019.506958 590.512024,1180.629517 
	C773.723633,1226.942505 925.547913,1323.998291 1050.653564,1465.473877 
	C1175.138184,1324.437622 1326.390015,1227.157104 1510.275635,1181.033813 
	C1510.275635,1020.464600 1510.275635,859.324890 1510.275635,696.874146 
	C1408.700439,700.932007 1313.277100,725.948975 1222.875977,775.481812 
	C1223.922729,768.381409 1224.986938,762.914368 1225.486938,757.396240 
	C1226.448486,746.781921 1227.401245,736.147827 1227.719727,725.502930 
	C1227.856812,720.921387 1229.122681,718.032288 1233.311157,716.118530 
	C1259.619507,704.098083 1285.378906,690.693909 1312.262939,680.152466 
	C1370.868896,657.172852 1431.923096,643.701660 1494.658081,638.622925 
	C1520.841187,636.503235 1547.175049,636.243225 1573.113647,635.151428 
	C1575.700562,644.809326 1576.721313,1210.367065 1574.501221,1235.876831 
	C1567.306763,1237.165649 1559.882080,1238.520020 1552.448486,1239.823486 
	C1470.764038,1254.149536 1393.525513,1280.973389 1320.774170,1320.986206 
	C1265.425781,1351.427734 1213.742065,1387.128418 1164.539062,1426.586548 
	C1155.230225,1434.051880 1145.744019,1441.296143 1135.493530,1449.390747 
	C1132.456421,1452.147095 1130.265503,1454.155273 1127.787720,1456.480713 
	C1128.310791,1457.047485 1129.120850,1457.296875 1130.546631,1457.151245 
	C1133.482544,1454.542236 1135.802856,1452.328247 1138.123169,1450.114258 
M972.161255,1457.001099 
	C972.610474,1457.020020 973.059692,1457.038818 973.508911,1457.057739 
	C973.292725,1456.848145 973.076599,1456.638428 972.161255,1457.001099 
M1125.193604,1458.665283 
	C1125.193604,1458.665283 1124.915527,1459.194580 1124.915527,1459.194580 
	C1124.915527,1459.194580 1125.613647,1459.075195 1125.193604,1458.665283 
z"/>
    <path fill="var(--lines-color)" opacity="1.000000" stroke="none"
          d="
M1030.048828,549.667603 
	C1076.629028,548.930359 1122.217896,548.167908 1169.458130,547.377869 
	C1173.346069,560.674866 1178.081909,574.804504 1181.589355,589.232849 
	C1195.162109,645.066589 1198.389404,701.752075 1193.656738,758.866333 
	C1190.821533,793.081116 1183.442383,826.582031 1175.676147,859.984802 
	C1163.814209,911.002441 1145.475464,959.838684 1126.470093,1008.480713 
	C1124.460571,1013.623535 1121.858154,1015.660583 1116.278198,1015.626770 
	C1071.976562,1015.358398 1027.673462,1015.305725 983.370850,1015.357361 
	C979.096252,1015.362366 976.941467,1014.137939 975.285095,1009.967529 
	C948.846130,943.398315 926.204346,875.759888 913.688477,804.954651 
	C903.915710,749.667969 903.205017,694.320251 910.248779,638.829956 
	C914.065063,608.765625 921.036499,579.293945 930.553162,550.474792 
	C930.964905,549.227905 931.686340,548.083252 932.375977,546.658691 
	C964.612610,547.653564 996.835083,548.647949 1030.048828,549.667603 
M1061.090088,609.536682 
	C1044.927734,606.544067 1029.842529,609.569885 1016.486511,618.951172 
	C979.118286,645.198669 982.929626,699.183472 1020.171692,721.115723 
	C1041.731812,733.812744 1066.395020,732.236938 1087.351440,716.744324 
	C1106.136719,702.856812 1115.038696,677.734497 1108.652954,653.474426 
	C1102.443359,629.883423 1086.380615,615.590576 1061.090088,609.536682 
z"/>
    <path fill="var(--lines-color)" opacity="1.000000" stroke="none"
          d="
M989.653687,427.703522 
	C1001.516785,411.587250 1012.737366,395.882721 1024.570190,380.653961 
	C1032.499512,370.449097 1041.297729,360.919403 1049.674927,351.125275 
	C1080.296753,373.261353 1153.057373,488.305603 1159.867676,525.495239 
	C1086.753906,529.526978 1013.771606,529.131653 939.681519,525.446228 
	C952.835571,490.699249 970.348328,459.154694 989.653687,427.703522 
z"/>
    <path fill="var(--lines-color)" opacity="1.000000" stroke="none"
          d="
M1251.728516,1051.515625
	C1245.960449,1081.606445 1235.524414,1109.059570 1220.655396,1136.279419 
	C1198.722900,1093.774048 1173.631470,1054.754883 1138.402710,1023.190674 
	C1157.924561,979.080200 1171.875732,933.424927 1185.655762,886.468872 
	C1236.525146,930.817261 1262.839478,983.247742 1251.728516,1051.515625 
z"/>
    <path fill="var(--lines-color)" opacity="1.000000" stroke="none"
          d="
M880.532715,922.547180
	C890.857300,909.466064 901.835876,898.009766 914.089539,887.087097 
	C929.711670,933.109924 945.093994,978.426453 960.733215,1024.499756 
	C927.093933,1055.098633 902.068604,1093.653687 879.406250,1136.506958 
	C873.484314,1123.324463 867.960388,1112.145264 863.376343,1100.593140 
	C853.518127,1075.749878 846.509277,1050.198242 846.200928,1023.191467 
	C845.774658,985.852966 857.778198,952.737061 880.532715,922.547180 
z"/>
    <path fill="var(--lines-color)" opacity="1.000000" stroke="none"
          d="
M1071.032715,1127.088257
	C1076.039673,1160.125610 1075.080933,1192.359009 1071.906982,1224.611572 
	C1068.454590,1259.695068 1061.845337,1294.122192 1050.435791,1328.711304 
	C1049.391479,1326.464722 1048.559204,1325.109619 1048.107056,1323.637573 
	C1038.408691,1292.068359 1031.574829,1259.904053 1027.819092,1227.074097 
	C1024.860596,1201.213013 1022.638550,1175.367432 1025.792480,1149.346802 
	C1027.958374,1131.478638 1030.935181,1113.794800 1036.486450,1096.168335 
	C1045.491943,1096.168335 1054.395142,1096.168335 1064.424194,1096.168335 
	C1066.548462,1106.195679 1068.672729,1116.222290 1071.032715,1127.088257 
z"/>
    <path fill="var(--lines-color)" opacity="1.000000" stroke="none"
          d="
M1008.417847,1069.373535
	C1003.232666,1068.930542 998.990356,1068.511353 994.345520,1068.052490 
	C993.288879,1057.630615 992.263794,1047.519531 991.247070,1037.491333 
	C1018.767090,1032.533081 1091.354736,1032.882935 1110.172974,1038.193726 
	C1109.046143,1048.022339 1107.897583,1058.040649 1106.595459,1069.397461 
	C1073.688965,1069.397461 1041.524902,1069.397461 1008.417847,1069.373535 
z"/>
    <path fill="var(--lines-color)" opacity="1.000000" stroke="none"
          d="
M988.257935,1110.345215
	C989.732788,1108.058472 990.891357,1106.431519 991.996765,1104.769165 
	C997.047607,1097.173340 1003.643555,1093.229126 1014.176453,1096.134277 
	C1013.757996,1099.351440 1013.442932,1102.825073 1012.840271,1106.248047 
	C1004.982605,1150.872437 998.774414,1195.641479 1000.559753,1241.145996 
	C1000.737061,1245.664917 1000.583557,1250.196777 1000.583557,1254.718750 
	C1000.062744,1254.643066 999.096558,1254.759888 998.920166,1254.440552 
	C983.439453,1226.416504 972.963196,1196.982422 973.669189,1164.406860 
	C974.080383,1145.434448 978.633240,1127.585449 988.257935,1110.345215 
z"/>
    <path fill="var(--lines-color)" opacity="1.000000" stroke="none"
          d="
M1122.814453,1190.881470
	C1118.932495,1212.905273 1111.980957,1231.693970 1099.146240,1254.856934 
	C1099.146240,1243.698120 1099.288574,1233.454956 1099.106812,1223.217651 
	C1098.918213,1212.586182 1098.676514,1201.943115 1097.978149,1191.336792 
	C1097.258423,1180.407593 1096.215332,1169.484131 1094.842529,1158.617676 
	C1093.511597,1148.083496 1091.594116,1137.623047 1089.911377,1127.133789 
	C1088.242676,1116.731445 1086.545776,1106.333618 1084.851318,1095.872437 
	C1095.116821,1093.361938 1101.934204,1096.622314 1107.242065,1104.890503 
	C1120.061279,1124.858887 1125.189697,1146.840454 1124.991821,1170.224731 
	C1124.935913,1176.831543 1123.667358,1183.427979 1122.814453,1190.881470 
z"/>
    <path fill="url(#shadowGradient)" opacity="1.000000" stroke="none"
          d="
M1061.920166,609.650391 
	C1086.380615,615.590576 1102.443359,629.883423 1108.652954,653.474426 
	C1115.038696,677.734497 1106.136719,702.856812 1087.351440,716.744324 
	C1066.395020,732.236938 1041.731812,733.812744 1020.171692,721.115723 
	C982.929626,699.183472 979.118286,645.198669 1016.486511,618.951172 
	C1029.842529,609.569885 1044.927734,606.544067 1061.920166,609.650391 
z"/>
</svg>
