<?xml version="1.0" encoding="UTF-8" standalone="no"?>
<svg xmlns:dc="http://purl.org/dc/elements/1.1/"
     xmlns:cc="http://creativecommons.org/ns#"
     xmlns:rdf="http://www.w3.org/1999/02/22-rdf-syntax-ns#"
     xmlns:svg="http://www.w3.org/2000/svg"
     xmlns="http://www.w3.org/2000/svg"
     viewBox="0 0 1600 840"
     height="840"
     width="1600"
     xml:space="preserve"
     id="mascot"
     version="1.1"
>
    <defs id="defs6">
        <clipPath id="clipPath20" clipPathUnits="userSpaceOnUse">
            <path id="path18" d="M -20.4107,17.6121 H 1192.86 V 568.604 H -20.4107 Z"/>
        </clipPath>
    </defs>
    <g transform="matrix(1.3333333,0,0,-1.3333333,0,840)" id="g10">
        <g transform="matrix(1,0,0,-1,0,630)" id="g12">
            <g id="g14">
                <g clip-path="url(#clipPath20)" id="g16">
                    <g transform="translate(979.6786,150.4326)" id="g22">
                        <path id="path24" style="fill:#000000;fill-opacity:1;fill-rule:nonzero;stroke:none"
                              d="m 0,0 c 0,-0.0104 0,-0.0104 0,-0.0104 0,0 -6e-4,-8e-4 -9e-4,-8e-4 -8e-4,-0.007 -0.0031,-0.0137 -0.01,-0.0204 -0.0106,-0.0639 -0.0317,-0.1383 -0.0423,-0.2126 0.0423,0.1595 0.0956,0.3293 0.138,0.4888 C 0.0637,0.1595 0.0317,0.0748 0,0 Z"/>
                    </g>
                    <g transform="translate(980.2737,152.0482)" id="g26">
                        <path id="path28" style="fill:#000000;fill-opacity:1;fill-rule:nonzero;stroke:none"
                              d="M 0,0 C -0.032,-0.0635 -0.0531,-0.1383 -0.0851,-0.2126 -0.0214,-0.0743 0.0317,0.0532 0.0956,0.1915 0.0637,0.1275 0.0317,0.064 0,0 Z"/>
                    </g>
                    <g transform="translate(979.2853,151.5274)" id="g30">
                        <path id="path32"
                              style="fill:#000000;fill-opacity:1;fill-rule:nonzero;stroke:none"
                              d="M 0,0 C 0,-0.0955 0.0105,-0.191 0.0105,-0.2762 0.0317,0.2978 0.0637,0.8718 0.1168,1.4561 0.0743,0.9673 0.0317,0.4785 0,0 Z"/>
                    </g>
                    <g transform="translate(979.0907,140.0555)" id="g34">
                        <path id="path36"
                              style="fill:#000000;fill-opacity:1;fill-rule:nonzero;stroke:none"
                              d="M 0,0 C 0.1807,0.2554 0.3613,0.5208 0.5525,0.7866 0.4888,1.0947 0.425,1.3925 0.3824,1.7007 0.3081,2.1683 0.3081,2.6572 0.223,3.1248 0.2444,3.0081 0.2656,2.891 0.287,2.7743 0,4.5598 -0.0852,6.3132 0.1168,8.0244 c 0.0319,0.7974 0.0425,1.5944 0.0639,2.4022 -0.2021,1.2646 -0.3614,2.5189 -0.4466,3.8047 0,0 -0.0106,0.0108 -0.0106,0.0108 -0.0211,0.255 -0.0425,0.51 -0.0531,0.765 -0.032,0.5209 -0.0531,1.0525 -0.0743,1.5837 -0.0746,2.5617 -0.1701,5.1441 -0.1383,7.7162 -6.0049,-4.5382 -12.1376,-8.9169 -18.3763,-13.1366 -13.8701,-9.1935 -28.2501,-17.4941 -43.0977,-24.9661 -15.5812,-7.6843 -31.6298,-14.3585 -46.8285,-19.5986 -16.1123,-5.4627 -32.5224,-9.9477 -49.1983,-13.4019 -17.5791,-3.497 -35.3284,-5.8668 -53.2053,-7.0576 -17.3878,-1.0308 -34.7864,-0.9776 -52.153,0.1915 -17.5792,1.3178 -35.0202,3.7092 -50.984,6.9828 -0.7547,0.1595 -1.5199,0.319 -2.0194,0.4253 -16.8034,3.5709 -33.341,8.2474 -49.5598,13.9015 -15.8999,5.6758 -31.4173,12.3185 -45.6485,19.4499 -0.3402,0.1703 -0.6696,0.3402 -1.0097,0.51 -14.8796,7.6103 -29.281,16.1128 -43.1297,25.4762 -13.7742,9.4381 -26.9533,19.7049 -39.0483,30.3653 -0.2019,0.1806 -0.4039,0.3613 -0.6059,0.542 0,0 -0.1488,0.1275 -0.1488,0.1275 -12.1056,10.8195 -23.5628,22.3409 -34.2337,34.489 -0.0318,0.0423 -0.0743,0.0847 -0.1062,0.1275 -0.0213,0.0104 -0.0319,0.0315 -0.0425,0.0423 -0.0107,0.0108 -0.0213,0.032 -0.0425,0.0424 -0.0213,0.032 -0.0532,0.0748 -0.0851,0.1063 -0.0212,0.0216 -0.0318,0.0428 -0.0531,0.064 -0.0319,0.032 -0.0638,0.0635 -0.0851,0.0955 -0.0106,0.0108 -0.0106,0.0108 -0.0212,0.0212 -0.0531,0.0531 -0.0956,0.1171 -0.2232,0.2554 -1.7005,1.881 -3.7411,3.2096 -6.3238,3.5817 -0.4571,0.0636 -0.9141,0.0956 -1.3817,0.0956 -2.1788,0 -4.3257,-0.7227 -6.0794,-2.0513 -2.5614,-1.9661 -4.0281,-5.314 -3.9218,-8.556 0.17,-0.2654 0.3294,-0.542 0.4782,-0.8182 0.7228,-1.2646 1.4136,-2.5401 2.0938,-3.8155 0.4252,-0.797 0.8397,-1.5836 1.2435,-2.3914 0.1063,-0.1487 0.2126,-0.3082 0.3082,-0.4677 0.202,-0.2973 0.4252,-0.6271 0.5952,-0.9673 12.6477,-14.2629 26.2413,-27.6333 40.7276,-40.0472 24.5089,-21.0123 51.5898,-39.1227 80.3818,-53.7263 31.0773,-15.7617 64.0356,-27.6868 98.078,-35.1477 1.8175,-0.3933 3.6243,-0.7758 4.1451,-0.8821 36.9972,-7.7374 74.855,-10.2352 112.5536,-7.7374 38.6234,2.5509 76.7151,10.9366 113.0747,24.1367 26.018,9.4382 50.9945,21.703 74.5149,36.2745 2.604,2.997 5.1973,5.9308 8.3434,8.4285 0.0105,0.0104 0.0211,0.0212 0.0317,0.0316 2.5509,2.0197 5.7925,2.9761 8.9915,2.891 C -1.7325,-1.2115 -0.861,-0.6056 0,0 Z"/>
                    </g>
                    <g transform="translate(1045.2513,342.5095)" id="g38">
                        <path id="path40"
                              style="fill:#000000;fill-opacity:1;fill-rule:nonzero;stroke:none"
                              d="M 0,0 C -0.0211,-0.0212 -0.0424,-0.0532 -0.0531,-0.0743 0.1383,0.1595 0.3296,0.4037 0.5314,0.6375 0.3507,0.4253 0.17,0.2126 0,0 Z"/>
                    </g>
                    <g transform="translate(1001.0376,417.8004)" id="g42">
                        <path id="path44"
                              style="fill:#000000;fill-opacity:1;fill-rule:nonzero;stroke:none"
                              d="m 0,0 c -0.967,-1.626 -2.0298,-3.178 -3.0927,-4.7509 0.0318,-0.2657 0.0213,-0.5419 -0.0639,-0.8186 -0.1698,-0.5951 -0.5314,-1.1263 -0.829,-1.6579 -0.223,-0.3717 -0.425,-0.7438 -0.6483,-1.116 -0.372,-0.6483 -0.7438,-1.307 -1.1371,-1.9553 -0.6166,-1.0204 -1.2118,-2.062 -1.9132,-3.0293 -0.2976,-0.4249 -0.6163,-0.8502 -0.9459,-1.2647 -0.2018,-0.2658 -0.404,-0.5419 -0.659,-0.7655 -0.0211,-0.0211 -0.0424,-0.0314 -0.0637,-0.0527 18.9182,-10.6816 30.5244,-30.9604 36.7102,-51.8452 2.57,-7.7283 5.0115,-15.5446 7.2237,-23.4369 0.6273,1.0424 1.4024,1.9973 2.3844,2.8184 0.3824,0.542 0.7757,1.084 1.169,1.6259 1.0946,2.349 1.8919,4.8252 3.2733,7.0359 0.7547,1.2223 1.5199,2.2851 2.3492,3.3371 0.0743,0.4785 0.1591,0.9673 0.2655,1.435 0.6594,2.8595 2.1551,5.4257 4.2464,7.3678 -3.8304,11.0366 -8.1388,21.8583 -12.7384,32.3717 C 27.4637,-17.8451 15.2731,-6.3984 0.7972,1.3499 0.5315,0.9033 0.2659,0.4465 0,0 Z"/>
                    </g>
                    <g transform="translate(421.1852,267.9691)" id="g46">
                        <path id="path48"
                              style="fill:#000000;fill-opacity:1;fill-rule:nonzero;stroke:none"
                              d="m 0,0 c 0.6028,-14.9536 3.0112,-29.6933 5.4188,-44.4313 0.0946,-0.2817 0.1864,-0.5636 0.278,-0.8453 0.2019,-0.6375 0.4145,-1.2966 0.6164,-1.9449 0.1807,-0.478 0.3614,-0.9457 0.542,-1.4133 0.6909,-1.839 1.3924,-3.6776 2.1257,-5.5055 0.0532,-0.1171 0.0957,-0.2446 0.1488,-0.3721 0.0425,-0.064 0.085,-0.1168 0.1276,-0.1807 0.3507,-0.5208 0.6696,-1.0628 0.9777,-1.6048 0.7228,-1.265 1.4136,-2.5401 2.0938,-3.8155 0.1183,-0.2247 0.2365,-0.4498 0.3547,-0.6757 0.5725,-0.1815 1.1678,-0.3103 1.7816,-0.3767 13.1153,-1.0417 12.5945,13.7317 10.235,22.681 -1.913,11.3507 -3.5923,22.7126 -4.4957,34.1912 1.0416,35.4771 -8.0987,84.4097 27.0171,106.1978 7.206,4.6341 14.9646,8.014 22.989,10.7348 -1.3923,3.2308 -2.6146,6.5256 -3.7837,9.831 -0.9884,2.8059 -1.8812,5.6438 -2.7846,8.4813 -0.0212,0.0531 -0.0425,0.1063 -0.0744,0.1594 -0.0319,0.0744 -0.0638,0.1596 -0.0956,0.2446 C 8.1625,111.7568 -2.8271,81.009 0,0 Z"/>
                    </g>
                    <g transform="translate(900.0546,434.9888)" id="g50">
                        <path id="path52"
                              style="fill:#000000;fill-opacity:1;fill-rule:nonzero;stroke:none"
                              d="m 0,0 c -60.8896,-0.4249 -121.6411,-5.2397 -182.488,-6.3768 -61.4529,-1.1372 -123.5328,1.456 -183.1576,-16.1763 -0.2049,-0.0424 -0.4066,-0.0852 -0.6109,-0.1276 0.2962,-0.5772 0.5889,-1.1574 0.8766,-1.743 -0.0106,0.0211 -0.0212,0.0424 -0.0318,0.0531 1.1797,-2.4233 2.2,-4.9207 3.1459,-7.4504 0.0425,-0.1064 0.0957,-0.2127 0.1489,-0.319 0.9458,-2.0297 1.9024,-4.0597 2.7846,-6.111 0.3932,-0.9033 0.7545,-1.8386 1.0096,-2.7848 0.0219,-0.0805 0.0422,-0.1623 0.0626,-0.2437 17.5166,4.2533 35.0861,8.3243 52.9514,10.7127 48.5076,5.8349 96.8558,2.2852 145.4696,4.7932 40.4194,1.0417 80.7219,4.1449 121.152,5.0059 22.1494,0.1915 44.7346,1.4773 67.0647,0.6272 0.7226,1.3286 1.541,2.604 2.3274,3.8899 0.829,1.3393 1.6582,2.6783 2.4872,4.0177 0.3187,0.5209 0.6377,1.0309 0.967,1.5516 0.8927,1.594 1.8069,3.1673 2.7316,4.7401 0.4251,0.7547 0.829,1.4881 1.254,2.232 0.2553,0.4572 0.4783,0.9353 0.7441,1.3817 0.3293,0.574 0.6589,1.084 1.0948,1.5836 C 30.4606,-0.1063 20.9377,0.0747 11.7122,0.0747 7.748,0.0747 3.8367,0.0427 0,0 Z"/>
                    </g>
                    <g transform="translate(881.6437,371.0578)" id="g54">
                        <path id="path56"
                              style="fill:#000000;fill-opacity:1;fill-rule:nonzero;stroke:none"
                              d="m 0,0 c -2.2957,-4.9315 0.4357,-11.0219 5.3035,-13.0727 6.3875,-2.7315 12.2332,1.8171 14.2739,7.7902 6.2281,12.3396 12.9239,24.4665 19.7154,36.5191 3.1434,5.7713 8.7344,15.3244 15.9411,26.6502 0.0217,0.037 0.0433,0.0744 0.0652,0.1117 0.425,0.7439 0.829,1.4882 1.254,2.2212 0.2552,0.4573 0.4785,0.9353 0.744,1.3817 0.3508,0.606 0.7016,1.148 1.1798,1.6689 0.1328,0.1502 0.2884,0.2711 0.4568,0.365 1.2809,1.9674 2.5997,3.9704 3.958,6.0085 0.386,0.8256 0.7644,1.655 1.1332,2.4906 0.215,0.4993 0.6683,0.8236 1.174,0.9462 28.4836,42.1416 71.38,94.7652 96.4362,80.0305 8.5347,-25.4439 -25.7629,-80.9555 -45.3297,-111.6289 -0.0106,-0.1063 -0.0317,-0.2019 -0.0637,-0.3082 -0.17,-0.5951 -0.5314,-1.1268 -0.829,-1.658 -0.2232,-0.3721 -0.425,-0.7438 -0.6483,-1.116 -0.3719,-0.6483 -0.744,-1.3073 -1.1372,-1.9557 -0.6165,-1.02 -1.2117,-2.0616 -1.9131,-3.0289 -0.2976,-0.4253 -0.6163,-0.8502 -0.9459,-1.2646 -0.202,-0.2659 -0.4039,-0.5425 -0.6589,-0.7655 -0.1701,-0.1384 -0.3401,-0.2974 -0.5208,-0.4145 -0.1702,-0.2658 -0.3402,-0.5312 -0.4996,-0.7866 -9.9694,-14.8158 -20.2364,-29.5251 -31.683,-43.2465 -3.688,-1.4773 -6.345,-5.1121 -6.345,-9.2786 -0.5315,-6.685 6.1749,-12.8388 12.807,-10.7452 6.2069,1.9769 9.3316,8.4073 13.4979,12.9667 16.5802,20.9907 31.4173,43.2892 45.5423,66.0018 17.441,30.4181 76.3963,125.6265 9.2362,130.6324 C 87.9598,166.8748 28.2607,54.0343 0,0 Z"/>
                    </g>
                    <g transform="translate(826.4786,557.4235)" id="g58">
                        <path id="path60"
                              style="fill:#000000;fill-opacity:1;fill-rule:nonzero;stroke:none"
                              d="m 0,0 c -42.9223,-18.8779 2.2662,-114.0806 15.2856,-144.8322 5.284,-11.8477 23.4175,-4.274 18.3871,7.7687 -2.8802,5.9199 -5.4523,11.9782 -7.9525,18.0789 -10.8432,30.3749 -30.4814,66.9695 -20.6446,99.3446 0.0015,0 -0.4714,-0.0657 -0.4707,-0.0648 24.4843,8.4314 59.273,-89.1457 72.5717,-108.2466 1.5941,-11.391 18.3861,-11.8711 20.1082,-0.2367 -0.5889,11.6372 -9.9909,21.1933 -14.1629,31.8674 C 66.9145,-67.8297 41.7839,10.9304 0,0 Z"/>
                    </g>
                    <g transform="translate(462.8457,507.7869)" id="g62">
                        <path id="path64"
                              style="fill:#000000;fill-opacity:1;fill-rule:nonzero;stroke:none"
                              d="m 0,0 c -43.5015,-16.6016 14.6246,-157.9258 35.0734,-184.5288 7.9818,-10.2031 23.5948,1.7007 15.8043,12.2013 -16.3464,19.9707 -61.017,135.8935 -42.4601,153.845 28.8655,-18.1496 48.1369,-47.261 63.1119,-78.1396 0.0992,-0.1981 0.1981,-0.3962 0.2965,-0.5952 -0.0106,0.0213 -0.0212,0.032 -0.0318,0.0532 0.1442,-0.2945 0.2855,-0.5902 0.4244,-0.8867 6.0686,-12.6449 11.4316,-25.5588 16.4533,-38.1189 2.3276,-5.5055 1.1691,-14.3801 8.3645,-15.847 11.7124,-3.8155 16.5695,9.1512 11.8612,18.27 -5.8456,17.3242 -13.5723,33.979 -21.6499,50.3571 C 77.0007,-61.5696 37.0146,1.3087 7.1096,1.317 4.6631,1.3179 2.2899,0.8976 0,0 Z"/>
                    </g>
                    <g transform="translate(632.7063,545.8818)" id="g66">
                        <path id="path68"
                              style="fill:#000000;fill-opacity:1;fill-rule:nonzero;stroke:none"
                              d="m 0,0 c -33.8071,-20.3727 -46.5868,-61.4973 -60.6986,-96.1976 -2.1908,-9.8324 -13.4553,-26.9361 -9.0647,-35.7746 6.5091,-9.8143 18.4673,-3.759 19.5568,6.1426 7.624,21.806 15.4669,43.5787 25.7088,64.3153 5.9746,11.3922 12.043,23.7085 20.5598,33.2816 6.211,5.4004 19.6031,20.2287 26.2863,8.873 6.8893,-26.5182 -4.2396,-56.7104 -15.4704,-80.2922 -3.5993,-7.046 -7.3652,-14.0029 -11.7281,-20.6003 -4.2119,-4.5768 -5.1848,-12.1639 0.2822,-16.1958 14.7721,-9.1537 21.1512,15.4761 27.5707,24.552 14.9107,29.9691 28.01,66.4205 17.9919,99.735 C 34.8221,4.3442 14.2674,9.5972 0,0 Z m -54.334,-119.7529 c 0.4577,-0.2447 0.7232,-0.7353 1.0984,-1.1028 -0.0107,0.0109 -0.0107,0.0109 -0.0107,0.0109 0.1314,-0.1973 0.2662,-0.3946 0.4005,-0.5936 -0.4433,0.6193 -0.9433,1.1829 -1.4882,1.6855 z"/>
                    </g>
                    <g transform="translate(979.6752,150.4231)" id="g70">
                        <path id="path72"
                              style="fill:#000000;fill-opacity:1;fill-rule:nonzero;stroke:none"
                              d="M 0,0 C 0,0 0,-0.0104 0,-0.0212 0,-0.0104 0,-0.0104 0,0 0,0 0,0.0108 0,0.0108 0,0 0,0 0,0 c 0,-0.0104 -0.0105,-0.0212 -0.0105,-0.0212 0,0 0,0 0.0105,0 C -0.0149,-0.0735 -0.0247,-0.125 -0.0363,-0.1736 0.0029,-0.032 0.0491,0.1158 0.0958,0.255 0.0638,0.1703 0.032,0.0851 0,0 Z"/>
                    </g>
                    <g transform="translate(980.2704,152.0495)" id="g74">
                        <path id="path76"
                              style="fill:#000000;fill-opacity:1;fill-rule:nonzero;stroke:none"
                              d="M 0,0 C -0.0317,-0.0748 -0.0532,-0.1383 -0.0743,-0.2126 -0.0212,-0.0748 0.032,0.0532 0.0957,0.191 0.0637,0.1275 0.032,0.0635 0,0 Z"/>
                    </g>
                    <g transform="translate(979.2819,151.5287)" id="g78">
                        <path id="path80"
                              style="fill:#000000;fill-opacity:1;fill-rule:nonzero;stroke:none"
                              d="M 0,0 C 0,-0.0959 0.0106,-0.1915 0.0106,-0.287 0.0262,0.1387 0.0476,0.559 0.0786,0.9818 0.053,0.6516 0.0289,0.3235 0,0 Z"/>
                    </g>
                    <g transform="translate(1012.3202,324.284)" id="g82">
                        <path id="path84"
                              style="fill:#000000;fill-opacity:1;fill-rule:nonzero;stroke:none"
                              d="m 0,0 c -20.8951,-46.265 -69.7217,-140.4849 -45.8717,-189.8005 0.3508,0.2978 0.7015,0.5848 1.0522,0.8718 2.689,2.1364 6.1219,3.0821 9.47,2.8694 0.542,0.4465 1.1051,0.861 1.6897,1.2223 0.3296,0.4573 0.6483,0.925 0.9779,1.3926 -0.0638,0.3082 -0.1275,0.6163 -0.1702,0.9245 -0.0743,0.4677 -0.0743,0.9565 -0.1594,1.4241 0.0214,-0.1167 0.0426,-0.2338 0.064,-0.3505 -0.287,1.7855 -0.3722,3.5285 -0.1701,5.2501 0.0318,0.7973 0.0424,1.5943 0.0638,2.3913 -0.319,2.0409 -0.5103,4.039 -0.5846,6.1754 -0.1064,3.3052 -0.2338,6.6639 -0.0851,9.9694 0.0957,2.2103 0.2444,4.3891 0.829,6.5363 0.202,0.7439 0.4784,1.4773 0.8183,2.168 3.6986,36.1681 25.4019,86.3658 34.2444,106.2193 8.4815,14.9861 17.5366,43.8844 30.8115,62.7495 1.1266,3.7516 3.7199,6.9084 7.1847,8.6619 0.3184,0.3165 0.6389,0.6263 0.9617,0.9295 -3.3546,1.5413 -5.9153,4.3758 -7.3599,7.9027 -1.3072,1.6579 -2.2638,3.6245 -2.8271,5.7501 -0.319,1.2032 -0.5252,2.4646 -0.6618,3.7296 C 15.7695,34.9338 8.2946,16.6269 0,0 Z"/>
                    </g>
                    <g transform="translate(954.7156,134.8158)" id="g86">
                        <path id="path88"
                              style="fill:#000000;fill-opacity:1;fill-rule:nonzero;stroke:none"
                              d="m 0,0 c 0.2014,-3.7155 -0.1439,-8.4547 0.444,-12.6204 0.9631,1.2111 1.9557,2.3998 2.9782,3.5652 2.9654,3.401 5.8136,6.7701 9.3636,9.5972 1.9295,1.5254 4.242,2.4429 6.6316,2.7652 C 17.9978,7.6136 13.9572,9.7683 9.9277,9.7687 4.9742,9.7695 0.0371,6.5147 0,0 Z"/>
                    </g>
                    <g transform="translate(43.4451,533.394)" id="g90">
                        <path id="path92"
                              style="fill:#000000;fill-opacity:1;fill-rule:nonzero;stroke:none"
                              d="m 0,0 c -63.6058,-22.1478 -13.3264,-80.558 16.122,-109.0149 56.9875,-61.3719 121.0046,-116.8142 193.9769,-158.3936 35.891,-20.4973 73.9028,-37.9295 114.6686,-45.9252 14.1781,-3.0826 28.5369,-5.3145 42.7373,-8.3011 10.5077,-2.479 30.2761,-7.1281 31.2777,8.6831 0.0654,5.8312 -6.3653,10.7153 -11.6671,9.4864 -15.0802,-1.2888 -30.7153,5.6155 -45.9698,7.2323 -25.9552,4.851 -51.5794,11.8927 -75.6808,22.8007 -103.015,47.7186 -189.5786,124.0782 -262.9686,209.5298 -8.352,12.1361 -22.7215,32.2846 -3.8454,41.964 22.9634,9.5299 56.3949,8.85 74.1891,-10.2966 -7.9318,1.4578 -15.9161,2.7411 -23.6936,4.8907 -7.0347,1.8188 -13.8212,6.0418 -21.2579,5.2469 -10.9595,-1.8013 -12.796,-14.427 -8.0918,-22.9274 24.5048,-45.8726 100.9906,-95.5676 144.9939,-125.6177 44.3867,-27.5088 91.7285,-50.6517 140.9734,-68.0702 27.6145,-8.5119 55.2907,-17.5506 83.7722,-22.7221 7.7245,-1.9641 19.0516,-2.9235 20.1933,7.5763 0.7658,8.7852 -7.8269,11.3934 -14.9615,11.751 -10.943,1.849 -21.7439,4.5893 -32.4825,7.4127 -31.3295,8.4077 -63.6318,18.4215 -92.817,31.6826 -15.6886,7.1323 -31.3853,14.3485 -46.7324,22.1922 -44.3582,22.6997 -84.6338,50.8236 -123.3097,81.8697 -19.9839,15.9287 -40.3274,31.9438 -55.8276,52.4743 16.1134,-2.4876 53.5465,-18.5909 53.7457,9.2982 C 86.9503,2.5475 34.1984,9.4435 0,0 Z"/>
                    </g>
                    <g transform="translate(965.535,146.794)" id="g94">
                        <path id="path96"
                              style="fill:#000000;fill-opacity:1;fill-rule:nonzero;stroke:none"
                              d="m 0,0 c -4.9846,-1.7219 -8.1519,-7.6311 -6.1644,-12.6901 0.634,-1.562 1.3166,-3.1032 2.0415,-4.6187 1.8877,2.0877 3.8487,4.0883 6.0892,5.8726 2.689,2.1256 6.1218,3.0716 9.4697,2.8698 0.5423,0.4465 1.1054,0.8502 1.69,1.2223 0.0359,0.0503 0.0714,0.1014 0.1072,0.1516 C 10.9834,-2.9135 8.2512,0.547 3.5028,0.5478 2.4413,0.5478 1.2804,0.3751 0,0 Z"/>
                    </g>
                    <g transform="translate(1139.8223,130.4686)" id="g98">
                        <path id="path100"
                              style="fill:#000000;fill-opacity:1;fill-rule:nonzero;stroke:none"
                              d="m 0,0 c 30.1951,46.9772 5.5161,111.842 -21.4374,156.4062 -12.7007,20.3852 -46.2754,77.1295 -70.3697,79.011 -12.4883,-3.8899 -8.8747,-17.0161 1.3497,-21.3737 9.8313,-7.9073 17.6218,-18.0041 25.4762,-27.8036 1.8066,-2.5081 3.6666,-5.1333 5.5585,-7.8437 0.7546,-1.0732 1.5092,-2.1576 2.2639,-3.2628 0.3824,-0.5528 0.7651,-1.1056 1.1371,-1.6579 0.3933,-0.5636 0.776,-1.1268 1.1479,-1.69 2.3063,-3.3799 4.6339,-6.8872 6.9616,-10.5009 0.3825,-0.5844 0.7545,-1.1691 1.1266,-1.7535 0.0743,-0.0956 0.1275,-0.1914 0.1912,-0.2978 0.4251,-0.6587 0.8396,-1.3178 1.2541,-1.9769 1.1373,-1.7958 2.2639,-3.6133 3.3905,-5.4523 0.3401,-0.5524 0.6803,-1.1052 1.0096,-1.658 0.776,-1.2646 1.5413,-2.5401 2.2959,-3.8259 0.7653,-1.2863 1.5199,-2.5829 2.2743,-3.8899 0.5208,-0.8929 1.031,-1.7963 1.5413,-2.7104 0.4356,-0.7438 0.8607,-1.5093 1.2752,-2.2639 1.7113,-3.0717 3.3904,-6.1962 5.0166,-9.3422 0.7864,-1.5093 1.5517,-3.029 2.3063,-4.549 0.3933,-0.7866 0.776,-1.5729 1.1586,-2.3594 0.2975,-0.606 0.5951,-1.2116 0.8714,-1.8175 0.2017,-0.3933 0.3824,-0.7866 0.5633,-1.1795 0.3187,-0.6699 0.6375,-1.3394 0.9459,-2.0089 0.0105,-0.0212 0.0211,-0.032 0.0211,-0.0531 0.542,-1.1584 1.0734,-2.3275 1.5836,-3.4966 0.149,-0.3298 0.287,-0.6699 0.4357,-0.9993 0.2659,-0.5843 0.5209,-1.1691 0.7655,-1.7535 0.3293,-0.7546 0.6483,-1.5092 0.967,-2.2639 0.4783,-1.1587 0.946,-2.3171 1.4136,-3.4754 0.744,-1.8494 1.4561,-3.7092 2.1364,-5.5694 0.0212,-0.0532 0.0423,-0.1167 0.0637,-0.1699 0.2445,-0.6695 0.4889,-1.3498 0.7226,-2.0193 0.2446,-0.6911 0.4889,-1.3606 0.7227,-2.0513 0,0 0,-0.0108 0,-0.0108 0,0 0,-0.0108 0,-0.0108 0.319,-0.8925 0.6166,-1.7958 0.9036,-2.6887 0.0106,-0.032 0.0212,-0.064 0.0317,-0.0956 0.287,-0.9037 0.574,-1.7962 0.8505,-2.6996 0,-0.0108 0.0105,-0.0319 0.0105,-0.0427 0.2232,-0.6907 0.4251,-1.3818 0.6272,-2.0725 0.2124,-0.7015 0.4144,-1.4029 0.6057,-2.1044 0.2019,-0.7014 0.3933,-1.4029 0.574,-2.1044 0.2338,-0.8501 0.4462,-1.7003 0.6589,-2.5509 0.6589,-2.6676 1.2434,-5.314 1.7325,-7.9604 0.0955,-0.4781 0.1807,-0.9565 0.2655,-1.4242 0.1064,-0.5848 0.2127,-1.1799 0.2976,-1.7643 0,-0.0108 0,-0.0211 0,-0.0319 0.0852,-0.4781 0.1596,-0.9457 0.2233,-1.4134 0.0106,-0.0428 0.0106,-0.0747 0.0211,-0.1171 0.0852,-0.5312 0.1596,-1.0628 0.2233,-1.5944 0.0957,-0.6587 0.1807,-1.3178 0.255,-1.9765 0.064,-0.542 0.1277,-1.0844 0.1809,-1.6264 0.053,-0.4357 0.0955,-0.861 0.1274,-1.2859 0,-0.0319 0.0107,-0.0743 0.0107,-0.1063 0.0743,-0.7866 0.138,-1.5732 0.1913,-2.349 0.0319,-0.4992 0.0637,-0.9989 0.085,-1.4877 0.0319,-0.4573 0.0533,-0.9141 0.0744,-1.3714 1.0628,-25.4437 -7.6205,-48.9326 -33.1071,-66.1609 -35.6047,-18.0045 -83.2833,-8.0884 -111.055,19.9067 -0.2231,0.1915 -0.4357,0.3826 -0.6483,0.5848 -0.202,0.191 -0.404,0.3929 -0.5953,0.5951 -0.4039,0.4357 -0.797,0.8925 -1.169,1.3814 -0.1064,0.1383 -0.2126,0.2766 -0.3083,0.4253 -0.7014,0.9461 -1.3497,1.9769 -1.9769,3.0077 -0.2018,0.3402 -0.4144,0.6911 -0.6163,1.0308 -0.4997,0.861 -1.0097,1.7328 -1.5199,2.5617 -0.0957,0.1699 -0.202,0.3402 -0.3081,0.4997 -0.202,0.3293 -0.404,0.6483 -0.6166,0.9565 -0.1063,0.1594 -0.2124,0.3185 -0.3293,0.4676 -0.1064,0.1595 -0.2127,0.3082 -0.319,0.4465 -0.1063,0.1487 -0.2127,0.2973 -0.3296,0.4356 -0.1487,0.1911 -0.2975,0.3718 -0.4462,0.542 -0.1913,0.2231 -0.3933,0.4465 -0.6058,0.6592 -0.2338,0.255 -0.4784,0.4888 -0.744,0.701 -0.1275,0.1171 -0.2658,0.2127 -0.3933,0.319 0,0 -0.0107,0.0108 -0.0107,0.0108 -2.37,1.8066 -5.4205,2.2955 -9.9904,0.0955 -7.0785,-5.3672 -5.6012,-12.4459 -1.3498,-19.067 3.8899,-6.069 10.1181,-11.7551 14.21,-15.3369 5.3353,-4.8463 11.1597,-9.066 17.3346,-12.6689 2.4128,2.5613 4.9846,5.0378 7.6737,7.4292 3.5073,3.1885 8.3857,-2.1044 4.9423,-5.314 -1.9452,-1.8814 -3.9113,-3.8052 -5.8351,-5.7608 8.8322,-4.3576 18.2488,-7.5672 27.9205,-9.6716 -0.1274,0.2762 -0.255,0.542 -0.3931,0.8078 -2.5615,2.168 -0.7122,6.5895 2.625,6.3768 3.4862,-0.7439 5.2505,-4.8887 6.2922,-8.7363 9.7247,-1.4457 19.6091,-1.807 29.3234,-1.1159 16.0912,0.8078 31.8848,5.8028 45.0425,14.9112 -0.4783,1.4669 -0.9139,2.9334 -1.307,4.3895 0.3613,2.0089 2.2529,3.1884 4.2085,2.9334 1.6261,-0.2654 2.4871,-1.3921 3.1034,-2.7419 1.9558,1.6579 3.837,3.4222 5.6331,5.282 2.6783,2.6892 5.1121,5.4631 7.3122,8.3222 -1.3497,0.606 -2.7207,1.1795 -4.1024,1.7219 -2.5828,0.8182 -6.2814,2.1148 -5.1974,5.6119 0.7123,2.2743 3.4011,3.1456 5.4205,2.0512 C -5.3885,2.3279 -2.6785,1.2119 0,0 Z"/>
                    </g>
                    <g transform="translate(1027.2009,187.3064)" id="g102">
                        <path id="path104"
                              style="fill:#000000;fill-opacity:1;fill-rule:nonzero;stroke:none"
                              d="M 0,0 C -18.412,-4.6354 -18.3644,-34.6099 1.127,-37.0635 33.6146,-41.7496 31.5253,6.8486 0,0 Z"/>
                    </g>
                    <g transform="translate(1088.2968,187.1698)" id="g106">
                        <path id="path108"
                              style="fill:#000000;fill-opacity:1;fill-rule:nonzero;stroke:none"
                              d="M 0,0 C -5.3303,-6.4956 -8.9275,-16.6436 -2.8906,-23.7322 3.5835,-34.7822 11.4946,-34.283 21.15,-27.6877 42.019,-12.9364 19.7091,18.6047 0,0 Z"/>
                    </g>
                    <g transform="translate(1032.6655,162.8325)" id="g110">
                        <path id="path112"
                              style="fill:#ffffff;fill-opacity:1;fill-rule:nonzero;stroke:none"
                              d="m 0,0 c -0.0637,-1.9346 1.5304,-3.7412 3.5073,-3.7412 1.9768,0 3.6773,1.4881 3.7411,3.5074 C 7.3121,1.7003 5.7179,3.5074 3.7412,3.5074 1.7643,3.5074 0.0637,2.0193 0,0 Z"/>
                    </g>
                    <g transform="translate(1101.7152,166.1313)" id="g114">
                        <path id="path116"
                              style="fill:#ffffff;fill-opacity:1;fill-rule:nonzero;stroke:none"
                              d="m 0,0 c -0.0638,-1.9346 1.5304,-3.7412 3.5073,-3.7412 1.9767,0 3.6773,1.4877 3.741,3.5074 C 7.3121,1.7003 5.7179,3.507 3.741,3.507 1.7643,3.507 0.0637,2.0193 0,0 Z"/>
                    </g>
                    <g transform="translate(1039.3048,172.882)" id="g118">
                        <path id="path120"
                              style="fill:#ffffff;fill-opacity:1;fill-rule:nonzero;stroke:none"
                              d="m 0,0 c -0.0424,-1.2119 0.9567,-2.3383 2.1896,-2.3383 1.2434,0 2.3062,0.9353 2.3382,2.1892 C 4.5702,1.0628 3.5712,2.1891 2.3383,2.1891 1.0948,2.1891 0.032,1.2538 0,0 Z"/>
                    </g>
                    <g transform="translate(1107.1974,179.3672)" id="g122">
                        <path id="path124"
                              style="fill:#ffffff;fill-opacity:1;fill-rule:nonzero;stroke:none"
                              d="m 0,0 c -0.0424,-1.2119 0.9567,-2.3383 2.1896,-2.3383 1.2435,0 2.3062,0.9353 2.3382,2.1892 C 4.5702,1.0628 3.5712,2.1891 2.3383,2.1891 1.0948,2.1891 0.032,1.2538 0,0 Z"/>
                    </g>
                    <g transform="translate(1047.1974,327.2838)" id="g126">
                        <path id="path128"
                              style="fill:#ffb0ad;fill-opacity:1;fill-rule:nonzero;stroke:none"
                              d="m 0,0 c -6.0157,-2.1331 -4.3734,-13.3633 2.2927,-12.9625 1.8872,-2.1564 2.3123,-5.3684 4.6946,-7.1157 3.2987,-2.5858 8.556,-0.0224 8.7365,4.1129 0.2292,2.0932 -0.4612,4.3169 -2.1758,5.5358 -0.5541,1.3282 -1.0745,2.7183 -2.1747,3.7171 -0.1159,1.9753 -1.1652,3.8762 -2.9019,4.8672 C 7.1044,1.3689 2.6582,2.0999 0,0 Z"/>
                    </g>
                    <g transform="translate(1041.8424,342.7221)" id="g130">
                        <path id="path132"
                              style="fill:#ffb0ad;fill-opacity:1;fill-rule:nonzero;stroke:none"
                              d="m 0,0 c -2.3181,-4.6686 -3.3772,-9.8203 -5.6205,-14.4619 -3.4991,-0.7031 -4.2597,-4.3421 -5.2096,-7.2518 -2.0386,-5.7879 -4.6448,-11.5962 -4.7401,-17.7915 0.127,-5.3058 7.4345,-8.2068 10.546,-3.5556 8.407,-0.7704 17.3203,0.9087 25.2439,3.7944 1.5551,-0.0951 3.197,0.1503 4.432,1.1786 3.435,-0.5133 7.2168,0.5503 10.1667,2.3022 3.6754,2.3353 3.3662,8.3682 -0.9143,9.8559 -1.9892,3.1797 -3.419,6.9379 -6.6635,9.0947 -3.3796,1.5724 -5.5385,4.5993 -7.7325,7.4978 C 18.8669,-2.4512 5.0509,9.0698 0,0 Z"/>
                    </g>
                    <g transform="translate(1040.876,340.6256)" id="g134">
                        <path id="path136"
                              style="fill:#ffb0ad;fill-opacity:1;fill-rule:nonzero;stroke:none"
                              d="m 0,0 c -4.3276,-7.2831 -7.021,-15.3968 -11.0361,-22.8181 -3.1548,-4.5387 -6.5638,-9.515 -5.6717,-15.3482 0.6536,-5.7114 9.2696,-7.2635 12.8389,-3.688 2.4218,2.5563 1.5167,6.6555 -1.1725,8.367 6.3612,8.5174 9.2742,19.6197 14.6808,28.4279 C 12.8859,1.2318 3.4258,6.2639 0,0 Z"/>
                    </g>
                    <g transform="translate(1073.8734,315.5764)" id="g138">
                        <path id="path140"
                              style="fill:#ffb0ad;fill-opacity:1;fill-rule:nonzero;stroke:none"
                              d="m 0,0 c -7.3544,-0.6113 -14.2531,-3.5983 -21.6201,-4.3882 -6.3694,-1.4092 -12.6292,-3.6864 -19.2477,-2.987 -7.3943,0.5212 -7.9585,-10.6833 -0.5862,-10.8515 2.4248,-2.9351 6.211,-1.9504 9.0305,-0.2571 10.1282,1.7057 19.4742,4.6125 29.4134,6.4532 2.2007,0.6504 4.3997,1.1779 6.6104,1.7536 C 9.3898,-7.5709 6.2206,1.3357 0,0 Z"/>
                    </g>
                    <g transform="translate(1035.2345,311.0706)" id="g142">
                        <path id="path144"
                              style="fill:#6b6b6b;fill-opacity:1;fill-rule:nonzero;stroke:none"
                              d="m 0,0 c 0.0957,-2.0405 1.8174,-3.4542 3.7943,-3.4542 1.9769,0 3.5392,1.8814 3.4542,3.7943 C 7.1528,2.3806 5.4312,3.7944 3.4542,3.7944 1.4773,3.7944 -0.085,1.913 0,0 Z"/>
                    </g>
                    <g transform="translate(1057.6827,315.1664)" id="g146">
                        <path id="path148"
                              style="fill:#6b6b6b;fill-opacity:1;fill-rule:nonzero;stroke:none"
                              d="m 0,0 c 0.0957,-2.0405 1.8174,-3.4542 3.7943,-3.4542 1.9768,0 3.5392,1.8814 3.4542,3.7943 C 7.1528,2.3806 5.4312,3.7944 3.4542,3.7944 1.4773,3.7944 -0.085,1.913 0,0 Z"/>
                    </g>
                    <g transform="translate(1011.1912,200.6656)" id="g150">
                        <path id="path152"
                              style="fill:#000000;fill-opacity:1;fill-rule:nonzero;stroke:none"
                              d="m 0,0 c -6.0901,-4.4423 -10.6388,-10.915 -12.6263,-18.1956 -1.9664,-7.2058 -1.4456,-14.8477 1.3709,-21.7561 2.8166,-6.9296 8.1414,-12.7644 14.6565,-16.3993 5.4629,-3.0397 11.8611,-4.5382 18.1106,-4.1449 3.0624,0.1952 6.0973,0.7945 8.9973,1.7825 0.094,0.0266 0.1879,0.0548 0.2812,0.0881 0.0088,0 0.0177,0.0066 0.0322,0.0091 0.7106,0.2505 1.4075,0.5279 2.0952,0.8282 2.6768,1.1471 5.2046,2.643 7.4912,4.4767 0.0285,0.0224 0.0554,0.0465 0.083,0.0702 0.3903,0.3106 0.7742,0.63 1.1499,0.9606 3.5604,3.1461 6.3133,6.9296 8.3645,11.2024 2.9972,6.2705 3.7624,13.6358 2.4232,20.4276 C 50.9415,-13.1365 46.924,-6.43 41.4611,-1.7747 35.8069,3.0717 28.6326,5.9731 21.1821,6.3133 20.6694,6.3374 20.1561,6.3494 19.6434,6.3494 12.6393,6.3494 5.6646,4.1296 0,0 Z m 21.1749,-0.9415 c 1.1193,-0.0922 2.2189,-0.2359 3.3236,-0.4191 1.0462,-0.2213 2.0834,-0.4863 3.1117,-0.7883 1.0868,-0.3754 2.1493,-0.799 3.1957,-1.2638 1.1295,-0.5644 2.2236,-1.1753 3.2948,-1.8568 0.8612,-0.5935 1.6924,-1.2178 2.1524,-1.575 0.2312,-0.2022 0.4616,-0.3957 0.6849,-0.5964 0.7521,-0.6662 1.4598,-1.383 2.144,-2.1235 0.7703,-0.8759 1.4853,-1.7913 2.1452,-2.7215 0.6317,-0.9574 1.2113,-1.9408 1.7474,-2.9576 0.4999,-1.0383 0.9436,-2.0952 1.3579,-3.1718 0.3456,-1.0591 0.638,-2.1202 0.8977,-3.205 0.2606,-1.4 0.4451,-2.8022 0.5456,-4.2284 0.0263,-0.9075 0.0195,-1.8145 -0.0093,-2.722 -0.0882,-1.2455 -0.2481,-2.4832 -0.4685,-3.686 -0.2293,-1.0561 -0.5058,-2.0936 -0.8284,-3.1298 -0.3811,-1.0807 -0.8115,-2.1364 -1.2913,-3.1676 -0.4934,-0.9715 -1.0273,-1.9188 -1.6082,-2.8425 -0.6729,-1.0021 -1.3925,-1.9666 -2.1685,-2.884 -0.7673,-0.8609 -1.5768,-1.6858 -2.4352,-2.4537 -0.6583,-0.5702 -1.3407,-1.1143 -2.0435,-1.626 -0.1558,-0.1113 -0.3125,-0.2217 -0.4706,-0.3318 -1.0174,-0.6849 -2.0625,-1.2991 -3.1516,-1.859 -0.3382,-0.1648 -0.6791,-0.324 -1.0235,-0.4759 -0.03,-0.0133 -0.0604,-0.0262 -0.0904,-0.0395 -0.0965,-0.042 -0.1931,-0.0835 -0.2902,-0.1246 -0.0749,-0.032 -0.1499,-0.0631 -0.2251,-0.0943 -0.1061,-0.0436 -0.2121,-0.0876 -0.3187,-0.1304 -0.0092,-0.0037 -0.0181,-0.0075 -0.0272,-0.0112 -0.4295,-0.1715 -0.8633,-0.3323 -1.3008,-0.4838 -1.0789,-0.3585 -2.1863,-0.6554 -3.3029,-0.8901 -1.0766,-0.2047 -2.1609,-0.3488 -3.2528,-0.4332 -1.1774,-0.0631 -2.3459,-0.0635 -3.5141,-0.0091 -1.2078,0.0976 -2.3999,0.2558 -3.5916,0.4847 -1.0843,0.2359 -2.1467,0.525 -3.194,0.8663 -0.9774,0.3494 -1.93,0.7418 -2.8651,1.1766 -1.0516,0.5246 -2.0676,1.0957 -3.0598,1.7249 -0.988,0.667 -1.93,1.3809 -2.8348,2.1497 -0.7997,0.7189 -1.557,1.4735 -2.2901,2.2589 -0.8794,1.0026 -1.6826,2.0534 -2.1602,2.7598 -0.6235,0.9403 -1.1945,1.9067 -1.722,2.9064 -0.5434,1.1168 -1.0119,2.251 -1.4278,3.4177 -0.3645,1.1558 -0.6652,2.3129 -0.916,3.4991 -0.1728,1.0112 -0.3095,2.0234 -0.4023,3.043 -0.0643,1.2339 -0.0639,2.4612 0.0015,3.6951 0.1082,1.2663 0.2822,2.5235 0.4386,3.3139 0.2418,1.1093 0.5326,2.1899 0.8794,3.2694 0.3325,0.9298 0.6975,1.8386 1.1077,2.7378 0.5363,1.0902 1.129,2.1405 1.7708,3.1651 0.6474,0.9506 1.3368,1.8606 2.0679,2.7515 0.7616,0.8568 1.5507,1.6637 2.3906,2.4429 0.9084,0.78 1.8347,1.5093 2.8092,2.1929 0.9406,0.6105 1.8914,1.1774 2.8826,1.6932 1.0842,0.5221 2.1786,0.9732 3.3041,1.3885 1.0218,0.3202 2.0454,0.6063 3.084,0.8452 1.2912,0.2387 2.5841,0.4136 3.8983,0.5183 1.0132,0.0373 2.0266,0.0373 3.0489,8e-4 z"/>
                    </g>
                    <g transform="translate(1096.4197,208.8491)" id="g154">
                        <path id="path156"
                              style="fill:#000000;fill-opacity:1;fill-rule:nonzero;stroke:none"
                              d="m 0,0 c -5.1851,-0.4875 -10.1586,-2.2344 -14.5615,-4.9863 -6.4907,-4.1595 -11.4166,-10.4482 -13.7737,-17.8218 -0.255,-0.797 -0.4677,-1.6048 -0.5632,-1.9661 -1.5304,-6.2178 -1.2329,-12.6478 0.744,-18.7381 1.6155,-4.9419 4.5594,-9.5228 8.3111,-13.1149 2.1916,-2.1078 4.6318,-3.8837 7.2991,-5.3394 2.5657,-1.3635 5.2588,-2.3934 7.6338,-2.972 1.418,-0.3522 2.845,-0.6051 4.3059,-0.7758 4.8322,-0.5325 9.749,-0.0071 14.3422,1.5342 0.0763,0.0211 0.1522,0.0444 0.2279,0.0706 0.4229,0.1437 0.8401,0.3006 1.2529,0.466 1.2836,0.5 2.5378,1.0819 3.7528,1.7447 0.1284,0.0698 0.2499,0.1479 0.3663,0.2305 3.9953,2.2593 7.5289,5.3029 10.2726,9.0162 2.8589,3.8791 4.8783,8.311 5.8669,13.0406 1.2646,6.0052 0.7652,12.3504 -1.3393,18.1109 -1.7705,4.8219 -4.6437,9.1225 -8.237,12.5518 -0.0481,0.0453 -0.097,0.0889 -0.1452,0.1338 0,0 -0.0737,0.068 -0.0737,0.068 -1.0817,0.9969 -2.2106,1.9284 -3.3251,2.7292 C 16.7426,-2.0197 9.9602,0.1466 3.0874,0.1466 2.0587,0.1466 1.0289,0.098 0,0 Z m 2.5984,-7.1078 c 1.1201,0.0092 2.2408,-0.0369 3.1621,-0.1192 0.0776,-0.0091 0.1549,-0.0195 0.2323,-0.029 0,0 0.0541,-0.0067 0.0541,-0.0067 1.0255,-0.1291 2.0321,-0.3061 3.0361,-0.532 1.1758,-0.2845 2.3125,-0.6567 3.4386,-1.0782 1.0256,-0.4124 2.0195,-0.8747 2.698,-1.2343 0.9774,-0.5271 1.9285,-1.1069 2.8387,-1.7452 0.0953,-0.0698 0.1906,-0.14 0.2857,-0.2093 0.8387,-0.6309 1.6451,-1.3012 2.4188,-2.0043 0.0131,-0.0121 0.0258,-0.0241 0.0388,-0.0357 0.7987,-0.7701 1.548,-1.5746 2.2625,-2.4202 0.7389,-0.9199 1.4224,-1.8693 2.02,-2.8391 0.5272,-0.8771 1.0082,-1.7804 1.4013,-2.5969 0.0174,-0.0387 0.034,-0.0777 0.0512,-0.1163 0,0 0.0065,-0.0146 0.0065,-0.0146 0.5098,-1.148 0.943,-2.322 1.3151,-3.5215 0.3109,-1.1201 0.5712,-2.256 0.76,-3.4002 0.1507,-1.0969 0.2523,-2.1866 0.2905,-3.0975 0.0011,-0.0718 0.0011,-0.1433 0.0017,-0.2151 0,0 6e-4,-0.0611 6e-4,-0.0611 0.0079,-1.123 -0.0475,-2.246 -0.1191,-3.1037 -0.0109,-0.0925 -0.0231,-0.1843 -0.0346,-0.2769 0,0 -0.0012,-0.0092 -0.0012,-0.0092 -0.1442,-1.145 -0.3483,-2.2664 -0.6134,-3.3869 -0.2866,-1.0778 -0.6246,-2.1385 -1.0223,-3.1822 -0.3977,-0.9736 -0.84,-1.9209 -1.3317,-2.8595 -0.5331,-0.9627 -1.1167,-1.893 -1.7577,-2.7984 -0.6493,-0.8822 -1.3456,-1.7257 -2.0818,-2.5293 -0.7409,-0.7704 -1.5157,-1.5139 -2.338,-2.2029 -0.9039,-0.7334 -1.8563,-1.4233 -2.6486,-1.9387 -0.5328,-0.329 -1.0765,-0.6425 -1.6286,-0.9386 -0.452,-0.2401 -0.9046,-0.4652 -1.3616,-0.6824 -1.0863,-0.4822 -2.1896,-0.8988 -3.3165,-1.2647 -1.2001,-0.3459 -2.4096,-0.62 -3.6366,-0.8223 -1.0935,-0.154 -2.1946,-0.2604 -3.1083,-0.2986 -0.0726,-0.0017 -0.1451,-0.0012 -0.218,-0.002 0,0 -0.0602,-5e-4 -0.0602,-5e-4 -1.0575,-0.0087 -2.1144,0.0357 -3.1719,0.135 -0.0731,0.0091 -0.1469,0.0174 -0.2215,0.0253 -1.0775,0.1337 -2.1467,0.3261 -3.2073,0.5707 -0.0601,0.0149 -0.1199,0.0295 -0.1798,0.044 -1.1351,0.3019 -2.2444,0.6579 -2.8998,0.9175 -1.088,0.4145 -2.1354,0.9099 -3.0292,1.3813 -1.0842,0.5952 -2.1256,1.2543 -3.0787,1.9412 -0.7928,0.5918 -1.5496,1.2211 -2.277,1.8864 -0.8128,0.7783 -1.5853,1.5898 -2.3104,2.4474 -0.7676,0.9595 -1.4788,1.9567 -2.1323,3.0024 -0.5611,0.9407 -1.0792,1.9068 -1.533,2.9048 -0.4013,0.9332 -0.7595,1.8897 -1.074,2.8541 -0.361,1.2181 -0.6512,2.4462 -0.8621,3.6946 -0.1637,1.1525 -0.2613,2.3071 -0.3053,3.4754 -0.003,1.0354 0.0378,2.0717 0.1234,3.1071 0.13,1.1524 0.3243,2.305 0.582,3.4492 0,0 0.0072,0.0083 0.0072,0.0083 0.2647,1.0785 0.5934,2.1206 0.9033,2.9866 0.0331,0.083 0.0672,0.1657 0.1009,0.2483 0,0 0.0134,0.0332 0.0134,0.0332 0.4209,1.0338 0.8942,2.0451 1.4131,3.034 0.5644,1.0067 1.1686,1.9852 1.5761,2.5409 0.6934,0.9581 1.4362,1.8668 2.2366,2.7374 0.747,0.7837 1.5363,1.53 2.2805,2.1621 0.0382,0.0308 0.0771,0.0611 0.1154,0.0918 0,0 0.0222,0.0183 0.0222,0.0183 0.8884,0.7106 1.8136,1.3751 2.7765,1.9931 0.032,0.02 0.0637,0.0399 0.0953,0.0594 1.0352,0.6176 2.0973,1.1724 3.1652,1.6542 1.0298,0.4436 2.0905,0.8294 2.6999,1.0084 1.2369,0.3709 2.4941,0.6612 3.7612,0.8726 1.0839,0.1537 2.1752,0.2492 3.0941,0.2857 0.0702,0.0013 0.1402,0.0013 0.2102,0.0017 0.093,0.0033 0.1859,0.0067 0.2787,0.0091 0,0 -0.2073,-0.0083 -0.2073,-0.0083 z"/>
                    </g>
                    <g transform="translate(1063.6174,180.0179)" id="g158">
                        <path id="path160"
                              style="fill:#fff7f7;fill-opacity:1;fill-rule:nonzero;stroke:none"
                              d="m 0,0 c 1.3392,-6.7913 0.574,-14.157 -2.4232,-20.4275 -2.0513,-4.2728 -4.804,-8.0564 -8.3645,-11.2024 -0.372,-0.3294 -0.7547,-0.6484 -1.1477,-0.9669 -0.0214,-0.0216 -0.0532,-0.0428 -0.0852,-0.064 -2.2851,-1.8386 -4.8146,-3.3371 -7.4929,-4.4746 -0.6802,-0.3082 -1.3816,-0.5844 -2.0937,-0.829 -0.0108,-0.0104 -0.0215,-0.0104 -0.032,-0.0104 -0.0849,-0.032 -0.1806,-0.064 -0.2764,-0.0959 -2.9014,-0.9881 -5.9411,-1.5836 -9.002,-1.7747 -6.2496,-0.3933 -12.6478,1.1052 -18.1107,4.1449 -6.5152,3.6349 -11.84,9.4697 -14.6565,16.3998 -2.8164,6.908 -3.3373,14.5499 -1.371,21.7561 1.9876,7.2801 6.5364,13.7529 12.6265,18.1956 5.6649,4.1237 12.6477,6.3448 19.6411,6.3448 0.5207,0 1.031,-0.0103 1.541,-0.0315 7.4504,-0.3402 14.6246,-3.242 20.2788,-8.0884 C -5.5055,14.2206 -1.4879,7.5144 0,0 Z m 66.937,7.3337 c 2.1041,-5.7605 2.6038,-12.1057 1.339,-18.1108 -0.9883,-4.7297 -3.0078,-9.1616 -5.8668,-13.0406 -2.742,-3.7201 -6.2708,-6.7598 -10.2667,-9.0237 -0.117,-0.0744 -0.2446,-0.1595 -0.372,-0.2231 -1.2117,-0.6699 -2.4658,-1.2434 -3.7518,-1.7431 -0.4145,-0.1702 -0.829,-0.3297 -1.2541,-0.4676 -0.0745,-0.032 -0.1489,-0.0532 -0.2232,-0.0743 -4.5916,-1.5413 -9.5122,-2.0621 -14.3483,-1.5305 -1.456,0.1699 -2.8802,0.4249 -4.3043,0.7758 -2.3702,0.574 -5.0698,1.6048 -7.6311,2.9654 -2.6679,1.4557 -5.1124,3.2308 -7.3018,5.346 -3.7518,3.5921 -6.6958,8.1731 -8.3114,13.115 -1.9767,6.0903 -2.2743,12.5202 -0.7437,18.738 0.0954,0.3613 0.3081,1.1691 0.5631,1.9661 2.3595,7.3653 7.2911,13.6574 13.7743,17.8235 4.4107,2.7424 9.3742,4.4958 14.5606,4.9847 1.0312,0.0959 2.0622,0.1383 3.0929,0.1383 6.866,0 13.6575,-2.1576 19.2691,-6.1642 1.1159,-0.7974 2.2425,-1.7327 3.3266,-2.7212 0,0 0.0744,-0.0743 0.0744,-0.0743 0.0426,-0.0424 0.0955,-0.0848 0.1382,-0.1275 3.5922,-3.4331 6.4727,-7.7375 8.237,-12.5519 z M 37.1884,-60.2517 c 67.7233,45.7762 16.8244,135.8084 -20.4063,189.0986 -0.3082,-1.4453 -1.2329,-2.774 -2.9228,-3.5606 -2.2106,-0.5843 -4.4107,-1.1051 -6.6106,-1.7535 -9.9377,-1.8494 -19.2904,-4.7508 -29.4194,-6.4619 -2.6676,-1.6048 -6.1962,-2.5721 -8.6195,-0.1703 -3.7729,-0.4249 -8.1198,1.4881 -8.6407,5.4311 -3.4225,-8.0136 -6.6002,-15.3257 -9.6931,-20.7996 -8.8427,-19.8536 -30.5458,-70.0508 -34.2444,-106.219 -0.34,-0.691 -0.6163,-1.4245 -0.8184,-2.1683 -0.5846,-2.1468 -0.7332,-4.3256 -0.8289,-6.5363 -0.0319,-0.7547 -0.0533,-1.5093 -0.0533,-2.264 -0.0106,-0.9564 -0.0106,-1.9129 0,-2.8694 0.0214,-1.0313 0.0533,-2.0513 0.0851,-3.0825 0.0213,-0.5844 0.0319,-1.1795 0.0532,-1.7643 0.0213,-0.5312 0.0424,-1.0628 0.0744,-1.5836 0.0212,-0.255 0.0426,-0.5208 0.0637,-0.7758 4.2406,-3.2416 6.2814,-10.7344 10.9259,-14.6139 27.7717,-27.9951 75.4503,-37.9112 111.0551,-19.9067 z"/>
                    </g>
                    <g transform="translate(1023.1343,36.2806)" id="g162">
                        <path id="path164"
                              style="fill:#2e2e2e;fill-opacity:1;fill-rule:nonzero;stroke:none"
                              d="m 0,0 c 13.4768,13.2429 21.8199,33.0009 20.0874,51.9832 -0.255,1.2011 -0.5631,2.6676 -0.9777,4.1876 -1.0416,3.8476 -2.8059,7.9924 -6.2921,8.7363 -3.3373,0.2127 -5.1865,-4.2089 -2.625,-6.3768 0.1381,-0.2658 0.2657,-0.5316 0.3931,-0.8078 -9.6718,2.1044 -19.0883,5.314 -27.9205,9.6715 1.9238,1.9557 3.8899,3.8795 5.835,5.7609 3.4435,3.2096 -1.4349,8.5024 -4.9422,5.314 -2.6891,-2.3914 -5.2609,-4.8679 -7.6737,-7.4292 C -38.0387,56.3195 -46.9984,38.8042 -45.1595,17.3243 -43.3209,-8.6088 -18.6208,-18.4186 0,0 Z"/>
                    </g>
                    <g transform="translate(1185.1306,77.0933)" id="g166">
                        <path id="path168"
                              style="fill:#2e2e2e;fill-opacity:1;fill-rule:nonzero;stroke:none"
                              d="m 0,0 c 7.4823,14.8265 -6.2494,28.3776 -17.2924,36.6254 -8.6407,6.6107 -18.068,12.286 -28.0159,16.7499 -2.6785,1.2119 -5.3886,2.3279 -8.1414,3.3483 -2.0194,1.0944 -4.7083,0.2231 -5.4205,-2.0512 -1.084,-3.497 2.6146,-4.7937 5.1973,-5.6119 1.3818,-0.5424 2.7527,-1.1159 4.1025,-1.7219 -2.2001,-2.859 -4.6339,-5.633 -7.3123,-8.3222 -1.796,-1.8598 -3.6772,-3.6241 -5.633,-5.282 -0.6164,1.3498 -1.4773,2.4765 -3.1034,2.7419 -1.9556,0.255 -3.8472,-0.9245 -4.2085,-2.9334 0.393,-1.4561 0.8287,-2.9226 1.307,-4.3895 6.6214,-20.2149 21.6286,-40.4194 43.948,-43.2357 C -14.1569,-15.5064 -4.3256,-9.3846 0,0 Z"/>
                    </g>
                    <g transform="translate(1001.3832,119.4971)" id="g170">
                        <path id="path172"
                              style="fill:#000000;fill-opacity:1;fill-rule:nonzero;stroke:none"
                              d="m 0,0 c -1.1456,-1.1355 -1.426,-2.661 -0.8512,-4.1175 -0.0222,-0.0582 -0.0436,-0.1167 -0.0629,-0.1765 -0.3973,-1.2094 -0.1041,-2.465 0.6641,-3.4148 -0.5884,-2.4442 1.629,-4.2948 3.6829,-5.1192 2.6619,-1.3723 7.2517,-2.9247 8.5024,0.9872 1.3209,-0.5549 2.6727,-1.5126 4.1627,-1.3477 1.5596,0.2209 2.981,1.2945 3.2671,2.9749 0.5182,4.7268 -5.9565,4.9266 -8.79,7.3122 C 7.3358,-1.6447 3.451,2.8462 0,0 Z"/>
                    </g>
                    <g transform="translate(999.9808,116.072)" id="g174">
                        <path id="path176"
                              style="fill:#000000;fill-opacity:1;fill-rule:nonzero;stroke:none"
                              d="m 0,0 c -1.8647,-4.4925 3.9071,-5.6678 6.8445,-7.1738 2.8348,-0.9835 6.0487,-4.2135 8.928,-1.7012 3.867,4.4066 -2.1236,6.7498 -5.5481,8.1312 C 7.0559,0.4224 2.3649,4.3559 0,0 Z"/>
                    </g>
                    <g transform="translate(997.3322,115.819)" id="g178">
                        <path id="path180"
                              style="fill:#000000;fill-opacity:1;fill-rule:nonzero;stroke:none"
                              d="m 0,0 c -2.901,-9.6462 25.8444,-15.3481 32.661,-17.2707 4.5209,-1.3647 6.7462,5.4337 2.2321,6.908 -3.4328,0.8822 -6.8659,1.7643 -10.2775,2.7208 -4.0803,1.1525 -8.0267,2.2299 -11.7832,3.9472 C 8.9001,-2.0932 3.6755,5.5778 0,0 Z"/>
                    </g>
                    <g transform="translate(1009.4379,110.2051)" id="g182">
                        <path id="path184"
                              style="fill:#000000;fill-opacity:1;fill-rule:nonzero;stroke:none"
                              d="m 0,0 c -1.0201,-1.6048 -0.6165,-4.0282 1.1053,-5.0167 5.9479,-3.3553 12.1509,-6.4229 18.6768,-8.4949 1.3264,-1.91 3.8785,-1.5508 5.8639,-1.91 1.5021,-0.4349 3.0138,-0.4627 4.5171,-0.0744 1.7541,0.2945 2.3725,2.0999 3.634,3.1016 2.4603,-0.3073 4.5359,-2.8765 7.0261,-1.0607 1.6176,1.0213 2.2553,3.232 1.3182,4.9211 -2.0314,2.9683 -6.5469,2.8699 -9.6083,3.9106 -3.3704,0.942 -9.1846,2.8089 -10.0994,-2.1401 C 16.749,-4.9875 11.0623,-2.2253 6.0049,0.5316 4.1484,1.9105 1.4094,2.2057 0,0 Z"/>
                    </g>
                    <g transform="translate(1130.3217,139.1617)" id="g186">
                        <path id="path188"
                              style="fill:#000000;fill-opacity:1;fill-rule:nonzero;stroke:none"
                              d="m 0,0 c -1.9128,-2.0483 -3.0261,-4.7546 -4.3151,-7.2249 -1.1323,-1.6567 -0.6027,-4.218 1.1841,-5.2127 -2.0445,-3.1589 2.1695,-7.0953 5.2038,-4.7911 2.3251,1.7722 3.4355,4.5864 5.4521,6.6638 1.8446,2.1987 1.8439,6.5824 -1.4038,7.4347 C 6.6127,0.1342 2.386,2.2814 0,0 Z"/>
                    </g>
                    <g transform="translate(1120.741,122.3732)" id="g190">
                        <path id="path192"
                              style="fill:#000000;fill-opacity:1;fill-rule:nonzero;stroke:none"
                              d="m 0,0 c -2.5498,-2.0612 -6.0692,-3.8732 -5.5293,-7.6954 -0.0256,-0.0154 -0.0514,-0.0304 -0.0767,-0.0457 -3.1127,-0.1965 -6.6848,-2.8533 -5.0158,-6.1638 0.8792,-1.3623 2.3862,-2.4803 4.1134,-2.3063 1.6764,0.2172 3.0505,1.2609 4.4562,2.1502 1.4047,0.7205 3.0787,1.2181 3.9085,2.7344 0.9108,1.9695 2.875,3.4509 2.8646,5.7958 C 10.2347,-1.5773 3.8961,5.7215 0,0 Z"/>
                    </g>
                    <g transform="translate(1002.0582,419.038)" id="g194">
                        <path id="path196"
                              style="fill:#6b6b6b;fill-opacity:1;fill-rule:nonzero;stroke:none"
                              d="m 0,0 c 19.8644,31.4917 49.1772,81.4019 41.2167,105.135 -25.0509,14.731 -67.9468,-37.8896 -96.4306,-80.031 -0.5102,-0.1274 -0.9566,-0.4464 -1.1797,-0.946 -0.3615,-0.8399 -0.744,-1.6689 -1.1268,-2.4978 -1.3603,-2.0297 -2.6781,-4.0386 -3.9642,-6.0047 -0.1594,-0.0959 -0.3189,-0.2126 -0.4571,-0.3613 -0.0211,-0.032 -0.0531,-0.0532 -0.0743,-0.0852 0,0 -0.0106,-0.0108 -0.0106,-0.0108 -0.2125,-0.2442 -0.4038,-0.4996 -0.5739,-0.7546 -0.0958,-0.1276 -0.1806,-0.2654 -0.2658,-0.4037 -0.085,-0.1275 -0.1593,-0.2766 -0.2444,-0.4145 -0.2656,-0.4464 -0.4889,-0.925 -0.744,-1.3817 -0.4252,-0.7439 -0.829,-1.4773 -1.2542,-2.232 -0.9247,-1.5729 -1.8386,-3.1461 -2.7315,-4.7401 -0.3293,-0.5207 -0.6483,-1.0311 -0.9671,-1.552 -0.829,-1.339 -1.658,-2.678 -2.4869,-4.0173 -0.7867,-1.2859 -1.605,-2.5613 -2.3277,-3.8899 -0.0851,0 -0.1806,0.0107 -0.2658,0.0107 -3.0503,-5.1018 -5.5161,-9.3957 -7.2378,-12.563 -6.7915,-12.0522 -13.4873,-24.179 -19.7154,-36.5186 -2.0407,-5.9732 -7.8863,-10.5222 -14.274,-7.7906 -4.8677,2.0512 -7.5991,8.1415 -5.3034,13.073 6.4194,12.2755 14.465,27.591 23.818,44.0435 -14.7522,-0.1596 -29.5147,-0.7547 -44.0862,-0.8822 -0.1913,0 -0.3933,-0.0108 -0.5846,-0.0108 -1.9023,-8.0348 -14.7202,-11.266 -19.0245,-1.6259 -0.1383,0.34 -0.287,0.691 -0.4465,1.0416 -33.713,-1.2327 -67.3623,-3.5394 -101.0965,-4.4108 -35.2222,-1.8174 -70.2955,-0.4568 -105.4008,-1.7854 -13.3491,-0.4996 -26.6983,-1.4029 -40.0687,-3.0078 -10.9366,-1.4669 -21.7668,-3.5605 -32.5332,-5.9415 3.4967,-8.0244 6.7277,-16.1548 9.5229,-24.445 4.7084,-9.1191 -0.1488,-22.0854 -11.8611,-18.2699 -7.1954,1.4665 -6.037,10.3411 -8.3646,15.8466 -2.9227,7.3229 -5.973,14.7733 -9.2147,22.2134 -0.17,-0.032 -0.3294,-0.0744 -0.4995,-0.1172 -0.0213,0.0852 -0.0425,0.1595 -0.0638,0.2446 -0.255,0.9457 -0.6164,1.881 -1.0097,2.7848 -0.8821,2.0513 -1.8387,4.0809 -2.7846,6.111 -0.0531,0.1063 -0.1063,0.2126 -0.1488,0.3189 -0.7121,1.8919 -1.456,3.7732 -2.2851,5.6222 -0.1488,0.319 -0.2976,0.6272 -0.4463,0.9462 -0.1276,0.2761 -0.2551,0.5631 -0.3933,0.829 0,0.0211 -0.0107,0.032 -0.0212,0.0531 0,0 -0.0107,0 -0.0107,0 -0.085,0.1806 -0.17,0.3722 -0.2657,0.542 -0.0531,0.1383 -0.1275,0.2762 -0.2019,0.4037 -0.1169,0.2554 -0.2445,0.4996 -0.372,0.7442 0,0 0.0106,0 0.0106,0 -14.8902,30.4608 -34.0425,59.0718 -62.5475,76.9912 -10.5645,-10.2243 -0.6378,-52.2061 12.9027,-90.1598 0.1595,0.064 0.3295,0.1167 0.4996,0.1807 0.0318,-0.0851 0.0637,-0.1698 0.0956,-0.2446 0.0319,-0.0531 0.0531,-0.1059 0.0744,-0.1591 0.9034,-2.8379 1.7961,-5.6758 2.7846,-8.4817 1.1691,-3.305 2.3914,-6.6002 3.7837,-9.8309 -0.0638,-0.0212 -0.1382,-0.0424 -0.202,-0.0743 8.3964,-20.9272 17.0478,-38.379 22.5214,-45.0748 7.7906,-10.5009 -7.8224,-22.4044 -15.8043,-12.2012 -6.2069,8.0667 -15.8786,26.7196 -25.1359,49.2303 -1.4773,-0.8186 -2.9335,-1.6899 -4.3682,-2.6149 -26.677,-16.5587 -27.8143,-48.7838 -27.2722,-78.8618 6.3451,-0.8929 12.6902,-3.8686 12.0312,-11.4786 -0.7546,-6.9616 -5.9943,-8.8745 -11.6911,-8.8002 0.0106,-2.4018 -0.0212,-4.7617 -0.085,-7.0571 0.9034,-11.4787 2.5826,-22.8401 4.4957,-34.1912 0.6803,-2.5829 1.2117,-5.6438 1.3073,-8.6728 0.5102,-0.4253 0.9884,-0.8821 1.4455,-1.3921 0.1275,-0.1383 0.1701,-0.2023 0.2232,-0.2555 0.0106,-0.0103 0.0106,-0.0103 0.0212,-0.0211 0.0213,-0.032 0.0532,-0.0636 0.085,-0.0956 0.0213,-0.0211 0.032,-0.0423 0.0532,-0.0639 0.0319,-0.0316 0.0637,-0.0744 0.085,-0.1063 0.0213,-0.0104 0.0319,-0.0316 0.0426,-0.0424 0.0106,-0.0108 0.0212,-0.032 0.0424,-0.0424 0.032,-0.0427 0.0744,-0.0851 0.1063,-0.1275 10.6708,-12.148 22.1281,-23.6695 34.2337,-34.489 0,0 0.1488,-0.1275 0.1488,-0.1275 0.202,-0.1806 0.4039,-0.3613 0.6059,-0.542 12.095,-10.6604 25.2741,-20.9271 39.0483,-30.3653 13.8487,-9.3634 28.2501,-17.8658 43.1297,-25.4761 0.3401,-0.1699 0.6695,-0.3397 1.0096,-0.51 14.2313,-7.1315 29.7487,-13.7741 45.6486,-19.4499 16.2188,-5.6542 32.7564,-10.3306 49.5597,-13.9016 0.4996,-0.1063 1.2648,-0.2658 2.0195,-0.4252 15.9638,-3.2736 33.4047,-5.665 50.984,-6.9828 17.3666,-1.1692 34.7652,-1.2223 52.153,-0.1915 17.8769,1.1907 35.6262,3.5605 53.2052,7.0576 16.6759,3.4542 33.0861,7.9392 49.1984,13.4019 15.1987,5.2401 31.2473,11.9143 46.8284,19.5985 14.8477,7.4721 29.2277,15.7726 43.0978,24.9662 0.3295,0.2234 0.6588,0.4464 0.9778,0.6695 -8.3325,51.6749 32.5331,131.1215 51.1752,172.3911 4.8254,9.6611 9.3636,19.9067 15.1772,29.143 -4.3043,13.4127 -10.9046,26.4006 -20.3,36.5506 -8.9171,-13.3599 -18.2382,-26.4326 -28.1969,-39.0376 -4.1663,-4.5598 -7.2909,-10.9898 -13.498,-12.9667 -6.6319,-2.0936 -13.3383,4.0602 -12.807,10.7452 0,4.1665 2.6571,7.8014 6.3451,9.2787 11.4467,13.7209 21.7135,28.4306 31.6829,43.2464 0.1595,0.255 0.3296,0.5208 0.4996,0.7867 0.1593,0.1063 0.3082,0.2337 0.4569,0.3613 0.0214,0.0211 0.0426,0.0315 0.064,0.0531 0.255,0.223 0.4568,0.4992 0.6589,0.765 0.3294,0.4145 0.6483,0.8398 0.9458,1.2646 0.7016,0.9673 1.2967,2.009 1.9132,3.0295 0.3931,0.6483 0.7653,1.307 1.1372,1.9553 0.2232,0.3721 0.4251,0.7442 0.6484,1.1163 0.2974,0.5313 0.6588,1.0629 0.8289,1.658 0.0319,0.1063 0.0531,0.2019 0.0638,0.3082 0.0213,0.1698 0.0213,0.3401 0,0.51 1.0627,1.5733 2.1256,3.1249 3.0929,4.7509 0.2655,0.4464 0.5313,0.9033 0.7971,1.3497 C -0.1487,0.0743 -0.0743,0.0316 0,0 Z"/>
                    </g>
                    <g transform="translate(639.5801,446.2249)" id="g198">
                        <path id="path200"
                              style="fill:#6b6b6b;fill-opacity:1;fill-rule:nonzero;stroke:none"
                              d="M 0,0 C 11.2341,23.5844 22.3619,53.7793 15.4748,80.2971 8.7896,91.6478 -4.6021,76.8213 -10.809,71.4221 -19.3329,61.8461 -25.4016,49.5386 -31.3748,38.145 -41.1846,18.2806 -48.7946,-2.5402 -56.1174,-23.4246 c 14.9859,2.0829 30.0675,3.3268 45.2021,4.0815 C -6.8871,-13.115 -3.3692,-6.5895 0,0 Z"/>
                    </g>
                    <g transform="translate(900.0586,434.9909)" id="g202">
                        <path id="path204"
                              style="fill:#6b6b6b;fill-opacity:1;fill-rule:nonzero;stroke:none"
                              d="m 0,0 c 0.0849,0 0.1807,0 0.2656,0 -15.1028,27.5593 -46.5732,110.5026 -69.2326,102.7332 0.0531,0 0.4676,0.0639 0.4676,0.0639 -9.8418,-32.3846 9.7993,-68.9776 20.6401,-99.3533 0.6164,-1.4881 1.2223,-2.9865 1.8493,-4.4747 C -30.6733,-0.4889 -15.3474,-0.1063 0,0 Z"/>
                    </g>
                    <g transform="translate(882.3362,274.5469)" id="g206">
                        <path id="path208"
                              style="fill:#2e2e2e;fill-opacity:1;fill-rule:nonzero;stroke:none"
                              d="m 0,0 c -6.7292,-16.8375 -14.6562,-33.4641 -18.0779,-51.3743 -5.5939,-31.0356 -1.8716,-65.1442 17.0047,-91.1831 3.2403,-4.0423 6.9824,-8.0082 11.8184,-10.0333 5.2959,-1.4441 7.0939,7.2336 1.372,7.45 -9.4191,6.5176 -14.5581,17.97 -18.7144,28.3219 -9.1613,25.8745 -8.5834,55.0183 0.1024,80.7366 4.0755,11.207 8.5909,22.2471 13.1802,33.2547 C 8.48,1.4752 1.9069,4.3853 0,0 Z"/>
                    </g>
                    <g transform="translate(425.59,229.7903)" id="g210">
                        <path id="path212"
                              style="fill:#ffb0ad;fill-opacity:1;fill-rule:nonzero;stroke:none"
                              d="m 0,0 c -2.0407,12.6478 -3.89,25.3378 -4.4001,38.1771 -0.0744,2.1679 -0.1382,4.3043 -0.1914,6.398 -24.2856,5.3036 -48.0611,13.0091 -71.7941,20.3108 -49.241,17.4198 -96.5794,40.568 -140.9738,68.0743 -44.0012,30.0459 -120.4824,79.7439 -144.9913,125.6156 -4.6977,8.5028 -2.8696,21.129 8.0988,22.9253 7.4291,0.7974 14.2207,-3.4222 21.2566,-5.2397 7.7693,-2.1468 15.7618,-3.433 23.6905,-4.8891 -17.7918,19.1416 -51.2284,19.8219 -74.1856,10.2882 -18.8758,-9.6715 -4.5064,-29.8229 3.8368,-41.9605 73.3991,-85.4513 159.956,-161.805 262.9761,-209.5262 C -92.5832,19.2584 -66.9583,12.2225 -41.004,7.3653 -27.4104,5.9308 -13.5192,0.2978 0,0 Z"/>
                    </g>
                    <g transform="translate(445.4091,297.1262)" id="g214">
                        <path id="path216"
                              style="fill:#6b6b6b;fill-opacity:1;fill-rule:nonzero;stroke:none"
                              d="m 0,0 c -3.1413,-0.4631 -3.2815,-3.7387 -2.8701,-6.2485 -0.5734,-0.748 -0.8637,-1.7078 -0.719,-2.69 -0.9024,-3.946 -0.9857,-8.0452 -0.7233,-12.0946 -0.1765,-3.8911 -0.1669,-12.3217 5.8878,-9.9299 0.8661,-0.0552 1.7652,0.1923 2.5269,0.7892 1.0886,0.8468 1.3512,1.9997 1.3304,3.2166 0.9396,-0.1599 1.9707,0.0315 2.7012,0.5997 0.3518,-0.277 0.7492,-0.4983 1.1611,-0.6616 1.3891,-4.0273 -0.6346,-14.103 5.9463,-12.8795 5.2043,1.7772 1.0909,10.1712 1.1953,14.2422 1.371,2.9156 -0.3673,7.7116 -3.9418,7.7823 0.765,2.4005 0.2549,5.9257 -2.0373,7.3241 -0.2942,0.9399 -0.6103,1.8727 -1.0304,2.7702 -0.7813,1.6771 -2.528,2.3623 -4.2213,1.9811 C 4.5562,-3.2029 3.2762,0.5195 0,0 Z"/>
                    </g>
                    <g transform="translate(850.9881,414.5667)" id="g218">
                        <path id="path220"
                              style="fill:#6b6b6b;fill-opacity:1;fill-rule:nonzero;stroke:none"
                              d="m 0,0 c -6.8154,-0.616 -13.7455,-0.3243 -20.5552,-1.2543 -1.945,-0.2973 -3.3268,-2.1999 -3.0292,-4.1449 0.3084,-1.9662 2.1896,-3.3268 4.1451,-3.0289 4.8478,0.6595 9.7632,0.5923 14.6421,0.8456 -0.7428,-0.8432 -1.0962,-1.9536 -0.9209,-3.0884 0.6271,-4.0386 5.5798,-3.5393 8.5557,-3.1033 3.4021,0.5795 7.149,0.9898 9.9521,3.1532 1.8692,1.4416 1.8337,4.8496 -0.4176,5.9818 0.7832,6.585 -8.3332,5.1069 -12.4726,4.6321 C -0.1007,-0.0071 0,0 0,0 Z"/>
                    </g>
                    <g transform="translate(1027.198,187.3085)" id="g222">
                        <path id="path224"
                              style="fill:#fff7f7;fill-opacity:1;fill-rule:nonzero;stroke:none"
                              d="M 0,0 C 31.5311,6.8445 33.6177,-41.7513 1.1296,-37.0665 -18.3605,-34.6144 -18.407,-4.6382 0,0 Z m 29.7568,-15.2106 c 0.0334,0.9037 0.04,1.8141 0.0133,2.7178 -0.0996,1.4287 -0.2857,2.8308 -0.5449,4.2263 -0.2591,1.0898 -0.5515,2.1464 -0.8971,3.2096 -0.4186,1.0765 -0.8572,2.1331 -1.3622,3.1697 -0.5316,1.0167 -1.1163,2.0002 -1.7476,2.9571 -0.6579,0.9303 -1.3755,1.8473 -2.1464,2.7245 -0.6779,0.7376 -1.3888,1.4553 -2.1398,2.1198 -0.2259,0.1993 -0.4518,0.3987 -0.6844,0.5981 -0.4585,0.3588 -1.2958,0.9834 -2.153,1.5749 -1.0699,0.6844 -2.1664,1.2957 -3.296,1.8539 -1.0433,0.4652 -2.1064,0.8905 -3.1963,1.2692 -1.03,0.2991 -2.0666,0.5649 -3.1098,0.7841 -1.1032,0.1861 -2.2063,0.3257 -3.3227,0.4187 -1.0233,0.0399 -2.04,0.0399 -3.05,0 -1.3158,-0.1063 -2.605,-0.2791 -3.9008,-0.5183 -1.0366,-0.2392 -2.0599,-0.525 -3.0834,-0.844 C -5.9872,10.6389 -7.0836,10.187 -8.1669,9.662 -9.157,9.1437 -10.1072,8.5789 -11.0508,7.9675 c -0.9768,-0.6844 -1.9005,-1.4087 -2.8109,-2.1928 -0.8373,-0.7776 -1.628,-1.5816 -2.3856,-2.4388 -0.731,-0.8905 -1.422,-1.8009 -2.0733,-2.7511 -0.6379,-1.03 -1.2293,-2.0799 -1.7675,-3.1697 -0.412,-0.8971 -0.7775,-1.8075 -1.1098,-2.7378 -0.3456,-1.0765 -0.6379,-2.1597 -0.8772,-3.2694 -0.1594,-0.7908 -0.3322,-2.0467 -0.4386,-3.3093 -0.0664,-1.236 -0.0664,-2.4653 0,-3.6947 0.093,-1.0233 0.226,-2.0334 0.3987,-3.0434 0.2526,-1.1895 0.5516,-2.3458 0.9171,-3.502 0.4186,-1.1695 0.8838,-2.2992 1.4287,-3.4156 0.5249,-1.0034 1.0965,-1.9669 1.7211,-2.9106 0.4784,-0.7044 1.2825,-1.7543 2.1597,-2.7577 0.7375,-0.7841 1.4885,-1.5417 2.2925,-2.2593 0.9038,-0.7709 1.8474,-1.4819 2.8309,-2.1464 0.9967,-0.6313 2.0134,-1.2028 3.0633,-1.7277 0.9371,-0.432 1.8872,-0.8241 2.8641,-1.1762 1.0499,-0.339 2.1131,-0.6313 3.1962,-0.8639 1.1896,-0.2326 2.3791,-0.3921 3.5884,-0.4851 1.1696,-0.0531 2.3391,-0.0531 3.5153,0.0066 1.0898,0.0864 2.173,0.226 3.2561,0.432 1.1164,0.2392 2.2195,0.5316 3.3026,0.8904 0.432,0.1528 0.8706,0.3123 1.2959,0.4851 0.0133,0.0067 0.0199,0.0067 0.0265,0.0133 0.1063,0.0399 0.2126,0.0864 0.319,0.1262 0.0798,0.0333 0.1528,0.0665 0.2259,0.0931 0.0997,0.0465 0.1928,0.0864 0.2924,0.1262 0.0266,0.0133 0.0598,0.0267 0.0931,0.04 0.3389,0.1528 0.6845,0.3123 1.0233,0.4784 1.0831,0.5582 2.1331,1.1762 3.1498,1.8606 0.1594,0.1063 0.3123,0.2193 0.4718,0.3256 0.6978,0.5183 1.3822,1.0566 2.04,1.6281 0.8572,0.7708 1.668,1.5948 2.4388,2.452 0.7708,0.9171 1.4952,1.8872 2.1663,2.884 0.5782,0.9237 1.1164,1.8739 1.6081,2.8441 0.4785,1.03 0.9104,2.0866 1.2892,3.1697 0.3256,1.0367 0.5981,2.0733 0.8306,3.1299 0.2193,1.2028 0.3788,2.4387 0.4651,3.6881 z"/>
                    </g>
                    <g transform="translate(1088.2999,187.1689)" id="g226">
                        <path id="path228"
                              style="fill:#fff7f7;fill-opacity:1;fill-rule:nonzero;stroke:none"
                              d="M 0,0 C 19.7028,18.6063 42.0168,-12.938 21.1448,-27.6902 11.4894,-34.2822 3.5817,-34.7806 -2.8906,-23.7297 -8.931,-16.646 -5.3361,-6.4922 0,0 Z m 37.0331,-10.7053 c 0,0 0,0.0598 0,0.0598 -0.0067,0.0731 -0.0067,0.1462 -0.0067,0.2193 -0.0332,0.9104 -0.1396,2.0002 -0.2857,3.0966 -0.1927,1.143 -0.4519,2.2793 -0.7643,3.4024 -0.372,1.1961 -0.804,2.3723 -1.3156,3.5219 0,0 -0.0067,0.0133 -0.0067,0.0133 -0.0132,0.0398 -0.0333,0.073 -0.0466,0.1129 -0.3986,0.8174 -0.877,1.7211 -1.4021,2.5983 -0.598,0.9702 -1.2824,1.9204 -2.0201,2.8374 -0.7176,0.8439 -1.4619,1.6547 -2.266,2.4188 -0.0132,0.0133 -0.0265,0.0267 -0.0398,0.0399 -0.7709,0.7044 -1.5747,1.3755 -2.4187,2.0002 -0.093,0.0731 -0.186,0.1396 -0.2856,0.2126 -0.9104,0.638 -1.8607,1.2161 -2.8376,1.7477 -0.6777,0.3588 -1.6678,0.8174 -2.6978,1.2294 -1.1231,0.4253 -2.2594,0.7974 -3.4356,1.0831 -1.0034,0.226 -2.0134,0.3987 -3.0368,0.5316 0,0 -0.0531,0.0067 -0.0531,0.0067 -0.0798,0.0066 -0.1596,0.0199 -0.2326,0.0265 -0.9237,0.0798 -2.0467,0.1263 -3.1631,0.1197 -0.0266,0 -0.0465,0 -0.0731,0 -0.0665,0 -0.1395,0 -0.206,0 C 9.5159,14.5329 8.426,14.4399 7.3429,14.287 6.0736,14.0744 4.8177,13.782 3.5817,13.4099 2.9703,13.2305 1.9138,12.845 0.8838,12.4064 -0.186,11.9213 -1.2493,11.3698 -2.2859,10.7518 -2.3125,10.7319 -2.3457,10.7119 -2.3789,10.692 -3.3425,10.074 -4.2661,9.4095 -5.1566,8.6985 c 0,0 -0.0199,-0.02 -0.0199,-0.02 C -5.2164,8.6453 -5.2563,8.6187 -5.2961,8.5855 -6.0404,7.9542 -6.8246,7.21 -7.5754,6.4258 -8.3728,5.5553 -9.1171,4.645 -9.8082,3.688 c -0.412,-0.5581 -1.0168,-1.535 -1.5749,-2.5451 -0.525,-0.9834 -0.9968,-2.0001 -1.4154,-3.0301 0,0 -0.0133,-0.0332 -0.0133,-0.0332 -0.0332,-0.0864 -0.0665,-0.1661 -0.0997,-0.2526 -0.3123,-0.8638 -0.6379,-1.9071 -0.9037,-2.9836 0,0 -0.0067,-0.0067 -0.0067,-0.0067 -0.2592,-1.1429 -0.4518,-2.2992 -0.5847,-3.4488 -0.0864,-1.0366 -0.1262,-2.0733 -0.1262,-3.1099 0.0465,-1.1695 0.1461,-2.3191 0.3056,-3.4754 0.2127,-1.2493 0.505,-2.472 0.8638,-3.6947 0.3124,-0.9635 0.6713,-1.9204 1.0765,-2.8508 0.4519,-1.0034 0.9702,-1.9669 1.5285,-2.9038 0.6578,-1.05 1.3689,-2.0467 2.133,-3.0036 0.7244,-0.8573 1.5019,-1.668 2.3125,-2.4521 0.7244,-0.6645 1.4818,-1.2891 2.2793,-1.8806 0.9502,-0.6911 1.9936,-1.3489 3.0767,-1.947 0.8971,-0.4718 1.9404,-0.9636 3.0301,-1.3755 0.6513,-0.2659 1.761,-0.618 2.8974,-0.917 0.0598,-0.02 0.1196,-0.0333 0.1794,-0.0465 1.0631,-0.246 2.1331,-0.4386 3.2096,-0.5716 0.073,-0.0066 0.1461,-0.0132 0.2193,-0.0265 1.0565,-0.0997 2.1131,-0.1396 3.1763,-0.133 0,0 0.0599,0 0.0599,0 0.073,0 0.1461,0 0.2126,0 0.917,0.04 2.02,0.1463 3.1099,0.2991 1.2293,0.206 2.4387,0.4785 3.6349,0.824 1.1296,0.3655 2.2327,0.7841 3.3225,1.2626 0.4519,0.2193 0.9038,0.4452 1.3557,0.6844 0.5581,0.299 1.0964,0.6113 1.6346,0.937 0.7908,0.5183 1.741,1.2094 2.6446,1.9403 0.8239,0.6911 1.5948,1.4354 2.3391,2.1996 0.7375,0.804 1.4353,1.648 2.0799,2.5317 0.6446,0.9038 1.2294,1.8342 1.7609,2.7977 0.4918,0.9369 0.9304,1.8872 1.3291,2.864 0.3987,1.0433 0.7375,2.0999 1.0233,3.1764 0.2659,1.123 0.4718,2.2461 0.6113,3.389 0,0 0.0067,0.0067 0.0067,0.0067 0.0066,0.093 0.0199,0.186 0.0333,0.2791 0.0664,0.8571 0.1262,1.9802 0.1196,3.1032 z"/>
                    </g>
                </g>
            </g>
        </g>
    </g>
</svg>
